<svg width="40" height="40" viewBox="0 0 40 40" fill="none" xmlns="http://www.w3.org/2000/svg">
<mask id="path-1-inside-1_13_104" fill="white">
<path d="M40 20C40 31.0457 31.0457 40 20 40C8.9543 40 0 31.0457 0 20C0 8.9543 8.9543 0 20 0C31.0457 0 40 8.9543 40 20Z"/>
</mask>
<path d="M12.3077 19.5128C11.7554 19.5128 11.3077 19.9605 11.3077 20.5128C11.3077 21.0651 11.7554 21.5128 12.3077 21.5128V19.5128ZM27.3738 21.2199C27.7643 20.8294 27.7643 20.1962 27.3738 19.8057L21.0098 13.4418C20.6193 13.0512 19.9861 13.0512 19.5956 13.4418C19.2051 13.8323 19.2051 14.4654 19.5956 14.856L25.2525 20.5128L19.5956 26.1697C19.2051 26.5602 19.2051 27.1934 19.5956 27.5839C19.9861 27.9744 20.6193 27.9744 21.0098 27.5839L27.3738 21.2199ZM12.3077 21.5128H26.6667V19.5128H12.3077V21.5128ZM38 20C38 29.9411 29.9411 38 20 38V42C32.1503 42 42 32.1503 42 20H38ZM20 38C10.0589 38 2 29.9411 2 20H-2C-2 32.1503 7.84974 42 20 42V38ZM2 20C2 10.0589 10.0589 2 20 2V-2C7.84974 -2 -2 7.84974 -2 20H2ZM20 2C29.9411 2 38 10.0589 38 20H42C42 7.84974 32.1503 -2 20 -2V2Z" fill="#3B55DF" mask="url(#path-1-inside-1_13_104)"/>
</svg>
