<svg width="22" height="22" viewBox="0 0 22 22" fill="none" xmlns="http://www.w3.org/2000/svg">
<path fill-rule="evenodd" clip-rule="evenodd" d="M1.91789 1.91785C3.32218 0.513559 5.40137 -4.2797e-05 8 -4.2797e-05H10C10.5523 -4.2797e-05 11 0.447672 11 0.999957C11 1.55224 10.5523 1.99996 10 1.99996H8C5.59863 1.99996 4.17782 2.48636 3.33211 3.33206C2.4864 4.17777 2 5.59859 2 7.99996V14C2 16.4013 2.4864 17.8221 3.33211 18.6679C4.17782 19.5136 5.59863 20 8 20H14C16.4014 20 17.8222 19.5136 18.6679 18.6679C19.5136 17.8221 20 16.4013 20 14V12C20 11.4477 20.4477 11 21 11C21.5523 11 22 11.4477 22 12V14C22 16.5986 21.4864 18.6778 20.0821 20.0821C18.6778 21.4864 16.5986 22 14 22H8C5.40137 22 3.32218 21.4864 1.91789 20.0821C0.513602 18.6778 0 16.5986 0 14V7.99996C0 5.40133 0.513602 3.32214 1.91789 1.91785Z" fill="white"/>
<path fill-rule="evenodd" clip-rule="evenodd" d="M16.974 0.0158231C18.1761 -0.102183 19.3376 0.431984 20.4528 1.54739C21.5681 2.66282 22.1021 3.82444 21.9841 5.02645C21.8713 6.17602 21.181 7.10817 20.4528 7.83647L12.6777 15.6127L12.666 15.6242C12.4195 15.8628 12.1051 16.0648 11.8092 16.2136C11.5154 16.3613 11.1595 16.4969 10.8095 16.5469L7.8345 16.972C7.03392 17.0822 6.24838 16.8649 5.69123 16.3099C5.1327 15.7535 4.91331 14.9668 5.03106 14.1606L5.03137 14.1585L5.45464 11.1952L5.4549 11.1933C5.50455 10.8395 5.63936 10.4813 5.78834 10.1849C5.93772 9.88762 6.14287 9.56993 6.38911 9.32365L14.1643 1.54739C14.8924 0.819115 15.8245 0.128678 16.974 0.0158231ZM17.1694 2.00625C16.7107 2.05129 16.1923 2.34769 15.5786 2.96151L7.80342 10.7378C7.75366 10.7875 7.66279 10.909 7.57537 11.0829C7.48781 11.2572 7.44522 11.4015 7.43546 11.4715L7.435 11.4747L7.01072 14.4451L7.01017 14.4489C6.97074 14.7176 7.0524 14.8428 7.10267 14.8929C7.15466 14.9447 7.2862 15.0281 7.55966 14.991L7.5618 14.9907L10.5267 14.567C10.5911 14.5578 10.7335 14.5159 10.9109 14.4267C11.082 14.3407 11.2096 14.249 11.2708 14.1912L19.0385 6.42236C19.6522 5.80857 19.9487 5.29006 19.9937 4.8311C20.0336 4.42457 19.8966 3.81975 19.0385 2.96151C18.1804 2.10325 17.5757 1.96637 17.1694 2.00625Z" fill="white"/>
<path fill-rule="evenodd" clip-rule="evenodd" d="M13.7301 2.03708C14.2619 1.888 14.8138 2.19824 14.9629 2.73003C15.5465 4.81188 17.1763 6.44387 19.2726 7.03783C19.804 7.18839 20.1127 7.74119 19.9621 8.27256C19.8116 8.80393 19.2588 9.11264 18.7274 8.96208C15.9654 8.17952 13.8098 6.02609 13.0371 3.26989C12.888 2.7381 13.1983 2.18615 13.7301 2.03708Z" fill="white"/>
</svg>
