<svg width="20" height="20" viewBox="0 0 20 20" fill="none" xmlns="http://www.w3.org/2000/svg">
<g clip-path="url(#clip0_1_225)">
<path d="M1 15.8805C1 16.1865 1.0681 16.501 1.21282 16.807C1.35754 17.113 1.54482 17.402 1.79169 17.674C2.20881 18.133 2.6685 18.4645 3.18778 18.677C3.69855 18.8895 4.25188 19 4.84777 19C5.71607 19 6.64397 18.796 7.62293 18.3795C8.6019 17.963 9.58087 17.402 10.5513 16.6965C11.5303 15.9825 12.4582 15.192 13.3435 14.3165C14.2203 13.4325 15.012 12.506 15.7186 11.537C16.4166 10.568 16.9785 9.599 17.3871 8.6385C17.7957 7.6695 18 6.743 18 5.859C18 5.281 17.8978 4.7285 17.6935 4.2185C17.4892 3.7 17.1657 3.224 16.7146 2.799C16.1698 2.2635 15.5739 2 14.9439 2C14.7056 2 14.4672 2.051 14.2544 2.153C14.033 2.255 13.8373 2.408 13.684 2.629L11.7091 5.4085C11.5558 5.621 11.4452 5.8165 11.3686 6.0035C11.2919 6.182 11.2494 6.3605 11.2494 6.522C11.2494 6.726 11.309 6.93 11.4281 7.1255C11.5388 7.321 11.7006 7.525 11.9049 7.729L12.5518 8.4005C12.6455 8.494 12.688 8.6045 12.688 8.7405C12.688 8.8085 12.6795 8.868 12.6625 8.936C12.637 9.004 12.6114 9.055 12.5944 9.106C12.4412 9.3865 12.1773 9.752 11.8027 10.194C11.4196 10.636 11.011 11.0865 10.5684 11.537C10.1087 11.9875 9.666 12.404 9.21482 12.7865C8.77216 13.1605 8.40611 13.4155 8.11668 13.5685C8.07411 13.5855 8.02303 13.611 7.96344 13.6365C7.89534 13.662 7.82724 13.6705 7.75063 13.6705C7.60591 13.6705 7.49524 13.6195 7.4016 13.526L6.75463 12.8885C6.54181 12.676 6.33751 12.5145 6.14171 12.4125C5.94592 12.2935 5.75013 12.234 5.53731 12.234C5.37556 12.234 5.20531 12.268 5.01803 12.3445C4.83075 12.421 4.63495 12.5315 4.42213 12.676L1.60441 14.6735C1.38307 14.8265 1.22985 15.005 1.1362 15.2175C1.05108 15.43 1 15.6425 1 15.8805Z" fill="#3757FF" stroke="#3757FF" stroke-width="2" stroke-miterlimit="10"/>
</g>
<defs>
<clipPath id="clip0_1_225">
<rect width="20" height="20" fill="white" transform="matrix(-1 0 0 1 20 0)"/>
</clipPath>
</defs>
</svg>
