<svg width="25" height="25" viewBox="0 0 25 25" fill="none" xmlns="http://www.w3.org/2000/svg">
<path fill-rule="evenodd" clip-rule="evenodd" d="M21.7611 2.77568C21.0691 2.08263 19.661 1.73984 17.4185 2.48733L6.80691 6.02453V6.02453C5.08023 6.60214 3.85516 7.24889 3.07988 7.88958C2.30143 8.53289 2.06828 9.0866 2.06828 9.5007C2.06828 9.91452 2.30115 10.4673 3.07916 11.1089C3.8542 11.748 5.07874 12.3924 6.80556 12.967L9.95601 14.0172C10.2248 14.1068 10.4356 14.3177 10.5252 14.5864L11.5752 17.7364C12.1497 19.463 12.795 20.6878 13.4349 21.4628C14.0773 22.2407 14.6313 22.4741 15.0464 22.4741C15.4615 22.4741 16.0155 22.2407 16.6579 21.4628C17.2978 20.6878 17.9429 19.4634 18.5174 17.7369L22.0544 7.12593V7.12593C22.796 4.88307 22.4542 3.46982 21.7611 2.77568ZM23.0348 1.50384C24.4323 2.90338 24.5965 5.17184 23.7634 7.6911L23.7627 7.69312L20.2254 18.3052V18.3052C19.6124 20.1471 18.8793 21.5996 18.0459 22.6089C17.2148 23.6154 16.2 24.2741 15.0464 24.2741C13.8928 24.2741 12.878 23.6154 12.047 22.6089C11.2135 21.5995 10.4804 20.1474 9.86744 18.3052L8.95989 15.5825L6.23725 14.675C4.39532 14.0621 2.9433 13.3299 1.93396 12.4976C0.927602 11.6677 0.26828 10.6541 0.26828 9.5007C0.26828 8.34761 0.927317 7.33335 1.93324 6.50206C2.94228 5.66818 4.39405 4.9336 6.2359 4.3175L16.8493 0.779697C19.3693 -0.0603142 21.6362 0.103146 23.0348 1.50384Z" fill="#3757FF"/>
<path fill-rule="evenodd" clip-rule="evenodd" d="M15.0194 9.20873C15.3714 9.55971 15.3722 10.1296 15.0212 10.4815L10.5462 14.969C10.1952 15.321 9.62536 15.3218 9.2734 14.9708C8.92143 14.6198 8.92064 14.05 9.27162 13.698L13.7466 9.21051C14.0976 8.85854 14.6675 8.85775 15.0194 9.20873Z" fill="#3757FF"/>
</svg>
