<svg width="14" height="12" viewBox="0 0 14 12" fill="none" xmlns="http://www.w3.org/2000/svg">
<path fill-rule="evenodd" clip-rule="evenodd" d="M0.962427 5.16592C4.72052 3.47245 7.2265 2.356 8.48037 1.81659C12.0604 0.276465 12.8043 0.00892841 13.2892 9.41924e-05C13.3958 -0.00184879 13.6343 0.0254864 13.7887 0.155112C13.9192 0.264566 13.955 0.412421 13.9722 0.516195C13.9894 0.619969 14.0108 0.856369 13.9938 1.04108C13.7998 3.1494 12.9603 8.26572 12.5332 10.6271C12.3525 11.6262 11.9967 11.9613 11.6522 11.9941C10.9036 12.0653 10.3351 11.4823 9.61007 10.9908C8.47546 10.2215 7.83448 9.74265 6.73315 8.992C5.46037 8.1245 6.28546 7.64771 7.01082 6.86849C7.20064 6.66457 10.4991 3.56151 10.5629 3.28001C10.5709 3.2448 10.5783 3.11357 10.503 3.04428C10.4276 2.97498 10.3163 2.99868 10.236 3.01753C10.1223 3.04424 8.3097 4.28334 4.79841 6.73483C4.28392 7.10023 3.81791 7.27826 3.40039 7.26893C2.9401 7.25865 2.05469 6.99976 1.39648 6.77846C0.589162 6.50704 -0.0524811 6.36353 0.00339163 5.90257C0.0324936 5.66247 0.352172 5.41692 0.962427 5.16592Z" fill="white"/>
</svg>
