<svg width="191" height="193" viewBox="0 0 191 193" fill="none" xmlns="http://www.w3.org/2000/svg">
<path d="M126.319 175.143L108.82 179.832L65.327 17.2636L82.9051 12.6206L126.319 175.143ZM174.492 97.1947C171.472 102.425 167.444 106.474 162.407 109.341C157.348 112.126 151.932 113.577 146.159 113.695C140.332 113.783 134.778 112.302 129.495 109.252C124.318 106.263 120.326 102.197 117.519 97.0545C114.712 91.9121 113.265 86.4278 113.177 80.6014C113.09 74.7751 114.51 69.3262 117.438 64.2547C120.458 59.0248 124.512 54.9911 129.602 52.1538C134.638 49.2859 140.055 47.8346 145.85 47.7999C151.624 47.6819 157.152 49.1478 162.435 52.1978C167.718 55.2478 171.778 59.3176 174.615 64.4072C177.43 69.4134 178.881 74.8297 178.969 80.656C179.004 86.4519 177.511 91.9648 174.492 97.1947ZM160.149 88.914C161.644 86.3254 162.367 83.6086 162.319 80.7635C162.249 77.835 161.497 75.1117 160.063 72.5933C158.659 70.0221 156.69 68.0045 154.154 66.5405C151.618 65.0765 148.886 64.3796 145.958 64.4498C143.06 64.4672 140.352 65.1928 137.833 66.6267C135.293 67.9773 133.275 69.9469 131.781 72.5355C130.317 75.0712 129.62 77.8033 129.69 80.7317C129.738 83.5768 130.464 86.2849 131.867 88.8561C133.301 91.3745 135.286 93.3657 137.821 94.8297C140.357 96.2937 143.074 97.017 145.972 96.9996C148.9 96.9294 151.635 96.219 154.176 94.8684C156.694 93.4345 158.685 91.4497 160.149 88.914ZM74.2078 128.152C71.1883 133.382 67.1602 137.43 62.1235 140.298C57.0339 143.136 51.6024 144.613 45.8288 144.731C40.033 144.766 34.4937 143.259 29.2109 140.209C24.0338 137.22 20.0418 133.154 17.235 128.011C14.4281 122.869 12.9809 117.385 12.8934 111.558C12.8058 105.732 14.2261 100.283 17.1541 95.2117C20.1736 89.9817 24.2128 85.9745 29.2719 83.19C34.3086 80.3221 39.7401 78.8444 45.5665 78.7569C51.34 78.6388 56.8682 80.1048 62.1509 83.1548C67.4337 86.2048 71.4937 90.2746 74.3311 95.3641C77.1156 100.423 78.5517 105.866 78.6392 111.692C78.7044 117.435 77.2273 122.922 74.2078 128.152ZM59.8651 119.871C61.3291 117.335 62.0524 114.618 62.0351 111.72C61.9649 108.792 61.2128 106.069 59.7789 103.55C58.3755 100.979 56.4059 98.9615 53.8702 97.4975C51.3345 96.0335 48.6024 95.3366 45.674 95.4068C42.776 95.4241 40.0679 96.1498 37.5495 97.5837C34.9783 98.9871 32.9607 100.957 31.4967 103.492C30.0327 106.028 29.3358 108.76 29.406 111.689C29.4539 114.534 30.1795 117.242 31.583 119.813C32.9864 122.384 34.956 124.402 37.4917 125.866C40.0274 127.33 42.7595 128.027 45.6879 127.957C48.6163 127.886 51.3509 127.176 53.8916 125.825C56.3794 124.444 58.3706 122.459 59.8651 119.871Z" fill="white"/>
</svg>
