<svg xmlns="http://www.w3.org/2000/svg" width="192" height="57" viewBox="0 0 192 57" fill="none">
<rect x="0.299805" y="0.430145" width="191" height="56" rx="7" fill="black"/>
<path d="M96.6512 31.0594C93.322 31.0594 90.6085 33.5806 90.6085 37.053C90.6085 40.5044 93.322 43.0467 96.6512 43.0467C99.9819 43.0467 102.695 40.5044 102.695 37.053C102.694 33.5806 99.9805 31.0594 96.6512 31.0594ZM96.6512 40.6876C94.8267 40.6876 93.254 39.1895 93.254 37.0545C93.254 34.8969 94.8281 33.4213 96.6512 33.4213C98.4758 33.4213 100.048 34.8969 100.048 37.0545C100.048 39.1881 98.4758 40.6876 96.6512 40.6876ZM83.4673 31.0594C80.1381 31.0594 77.4246 33.5806 77.4246 37.053C77.4246 40.5044 80.1381 43.0467 83.4673 43.0467C86.798 43.0467 89.5115 40.5044 89.5115 37.053C89.5115 33.5806 86.798 31.0594 83.4673 31.0594ZM83.4673 40.6876C81.6427 40.6876 80.0701 39.1895 80.0701 37.0545C80.0701 34.8969 81.6441 33.4213 83.4673 33.4213C85.2919 33.4213 86.8645 34.8969 86.8645 37.0545C86.8659 39.1881 85.2919 40.6876 83.4673 40.6876ZM67.7865 32.8999V35.4422H73.8986C73.716 36.8727 73.2375 37.9169 72.5071 38.6427C71.6182 39.5277 70.2268 40.5044 67.7865 40.5044C64.0241 40.5044 61.0827 37.4843 61.0827 33.7384C61.0827 29.9926 64.0241 26.9725 67.7865 26.9725C69.8163 26.9725 71.2983 27.7673 72.3925 28.789L74.1944 26.995C72.6657 25.5421 70.6373 24.4301 67.7865 24.4301C62.6326 24.4301 58.2998 28.6072 58.2998 33.7384C58.2998 38.8696 62.6326 43.0467 67.7865 43.0467C70.5679 43.0467 72.6671 42.1377 74.3076 40.4353C75.9949 38.7555 76.5201 36.3935 76.5201 34.4867C76.5201 33.8977 76.4748 33.3523 76.3828 32.8985H67.7865V32.8999ZM131.92 34.8743C131.419 33.5355 129.89 31.0594 126.766 31.0594C123.665 31.0594 121.087 33.489 121.087 37.053C121.087 40.4128 123.642 43.0467 127.062 43.0467C129.821 43.0467 131.417 41.3668 132.08 40.3902L130.027 39.0274C129.343 40.0266 128.408 40.6848 127.062 40.6848C125.717 40.6848 124.759 40.0717 124.143 38.8682L132.193 35.5536L131.92 34.8743ZM123.71 36.8727C123.642 34.5558 125.512 33.3762 126.858 33.3762C127.907 33.3762 128.796 33.8991 129.093 34.6474L123.71 36.8727ZM117.166 42.6845H119.81V25.0671H117.166V42.6845ZM112.832 32.3996H112.741C112.148 31.695 111.007 31.0594 109.572 31.0594C106.561 31.0594 103.802 33.6933 103.802 37.077C103.802 40.4367 106.561 43.0481 109.572 43.0481C111.009 43.0481 112.148 42.4125 112.741 41.6868H112.832V42.5492C112.832 44.8421 111.6 46.0682 109.617 46.0682C107.998 46.0682 106.994 44.9112 106.584 43.9345L104.281 44.8886C104.942 46.4769 106.697 48.4301 109.617 48.4301C112.719 48.4301 115.341 46.6136 115.341 42.1856V31.4244H112.833V32.3996H112.832ZM109.8 40.6876C107.975 40.6876 106.448 39.1656 106.448 37.077C106.448 34.9645 107.975 33.4213 109.8 33.4213C111.6 33.4213 113.014 34.9645 113.014 37.077C113.014 39.1656 111.6 40.6876 109.8 40.6876ZM144.311 25.0671H137.982V42.6845H140.622V36.0102H144.31C147.237 36.0102 150.116 33.9005 150.116 30.5394C150.116 27.1782 147.238 25.0671 144.311 25.0671ZM144.379 33.558H140.622V27.5193H144.379C146.353 27.5193 147.475 29.147 147.475 30.5394C147.475 31.9035 146.353 33.558 144.379 33.558ZM160.702 31.0284C158.79 31.0284 156.81 31.8669 155.99 33.7257L158.334 34.6996C158.835 33.7257 159.77 33.4072 160.748 33.4072C162.114 33.4072 163.502 34.2232 163.525 35.6734V35.8552C163.046 35.5832 162.022 35.1759 160.77 35.1759C158.244 35.1759 155.67 36.5584 155.67 39.1416C155.67 41.4993 157.743 43.0171 160.064 43.0171C161.839 43.0171 162.819 42.2237 163.433 41.2936H163.523V42.6535H166.074V35.8988C166.076 32.7731 163.729 31.0284 160.702 31.0284ZM160.382 40.6833C159.519 40.6833 158.312 40.2521 158.312 39.1867C158.312 37.8267 159.815 37.3053 161.113 37.3053C162.272 37.3053 162.82 37.5548 163.525 37.8944C163.32 39.5277 161.908 40.6833 160.382 40.6833ZM175.363 31.4131L172.335 39.0514H172.244L169.102 31.4131H166.257L170.969 42.0884L168.282 48.0271H171.037L178.3 31.4131H175.363ZM151.574 42.6845H154.214V25.0671H151.574V42.6845Z" fill="white"/>
<path d="M66.8879 15.2797C66.8879 16.4827 66.5368 17.4403 65.8332 18.1552C65.0347 19.0051 63.9926 19.4301 62.7128 19.4301C61.4867 19.4301 60.4433 18.9994 59.5867 18.138C58.7288 17.2752 58.2998 16.2071 58.2998 14.9322C58.2998 13.656 58.7288 12.5878 59.5867 11.7265C60.4433 10.8636 61.4867 10.433 62.7128 10.433C63.3216 10.433 63.9035 10.5535 64.4556 10.7933C65.0092 11.0345 65.4523 11.3546 65.7836 11.7552L65.0375 12.5132C64.4754 11.8313 63.701 11.491 62.7114 11.491C61.8166 11.491 61.0436 11.8097 60.3909 12.4471C59.7382 13.0846 59.4126 13.9129 59.4126 14.9308C59.4126 15.9487 59.7382 16.777 60.3909 17.4144C61.0436 18.0519 61.8166 18.3706 62.7114 18.3706C63.6599 18.3706 64.4514 18.0504 65.0842 17.4087C65.4948 16.9909 65.7326 16.4095 65.7963 15.6644H62.7114V14.6293H66.827C66.8695 14.8547 66.8879 15.0715 66.8879 15.2797Z" fill="white"/>
<path d="M73.4148 11.682H69.5469V14.4126H73.0354V15.4477H69.5469V18.1783H73.4148V19.2378H68.4553V10.624H73.4148V11.682Z" fill="white"/>
<path d="M78.0173 19.2378H76.9258V11.682H74.5529V10.624H80.3902V11.682H78.0173V19.2378Z" fill="white"/>
<path d="M84.6134 19.2378V10.624H85.7049V19.2378H84.6134Z" fill="white"/>
<path d="M90.5457 19.2378H89.4541V11.682H87.0813V10.624H92.9186V11.682H90.5457V19.2378Z" fill="white"/>
<path d="M103.968 18.1252C103.133 18.9951 102.095 19.4301 100.854 19.4301C99.612 19.4301 98.5743 18.9951 97.7404 18.1252C96.9051 17.2552 96.4888 16.1899 96.4888 14.9309C96.4888 13.6718 96.9051 12.6066 97.7404 11.7366C98.5743 10.8666 99.612 10.4301 100.854 10.4301C102.088 10.4301 103.125 10.868 103.963 11.7423C104.801 12.6166 105.22 13.679 105.22 14.9309C105.22 16.1899 104.802 17.2552 103.968 18.1252ZM98.546 17.403C99.1746 18.0491 99.9433 18.3706 100.854 18.3706C101.764 18.3706 102.534 18.0476 103.161 17.403C103.79 16.757 104.106 15.9329 104.106 14.9309C104.106 13.9288 103.79 13.1047 103.161 12.4587C102.534 11.8127 101.764 11.4911 100.854 11.4911C99.9433 11.4911 99.1746 11.8141 98.546 12.4587C97.9188 13.1047 97.603 13.9288 97.603 14.9309C97.603 15.9329 97.9188 16.757 98.546 17.403Z" fill="white"/>
<path d="M106.752 19.2378V10.624H108.08L112.208 17.3241H112.255L112.208 15.6645V10.624H113.3V19.2378H112.16L107.841 12.2118H107.794L107.841 13.8714V19.2378H106.752Z" fill="white"/>
<path d="M66.8879 15.2797C66.8879 16.4827 66.5368 17.4403 65.8332 18.1552C65.0347 19.0051 63.9926 19.4301 62.7128 19.4301C61.4867 19.4301 60.4433 18.9994 59.5867 18.138C58.7288 17.2752 58.2998 16.2071 58.2998 14.9322C58.2998 13.656 58.7288 12.5878 59.5867 11.7265C60.4433 10.8636 61.4867 10.433 62.7128 10.433C63.3216 10.433 63.9035 10.5535 64.4556 10.7933C65.0092 11.0345 65.4523 11.3546 65.7836 11.7552L65.0375 12.5132C64.4754 11.8313 63.701 11.491 62.7114 11.491C61.8166 11.491 61.0436 11.8097 60.3909 12.4471C59.7382 13.0846 59.4126 13.9129 59.4126 14.9308C59.4126 15.9487 59.7382 16.777 60.3909 17.4144C61.0436 18.0519 61.8166 18.3706 62.7114 18.3706C63.6599 18.3706 64.4514 18.0504 65.0842 17.4087C65.4948 16.9909 65.7326 16.4095 65.7963 15.6644H62.7114V14.6293H66.827C66.8695 14.8547 66.8879 15.0715 66.8879 15.2797Z" stroke="white"/>
<path d="M73.4148 11.682H69.5469V14.4126H73.0354V15.4477H69.5469V18.1783H73.4148V19.2378H68.4553V10.624H73.4148V11.682Z" stroke="white"/>
<path d="M78.0173 19.2378H76.9258V11.682H74.5529V10.624H80.3902V11.682H78.0173V19.2378Z" stroke="white"/>
<path d="M84.6134 19.2378V10.624H85.7049V19.2378H84.6134Z" stroke="white"/>
<path d="M90.5457 19.2378H89.4541V11.682H87.0813V10.624H92.9186V11.682H90.5457V19.2378Z" stroke="white"/>
<path d="M103.968 18.1252C103.133 18.9951 102.095 19.4301 100.854 19.4301C99.612 19.4301 98.5743 18.9951 97.7404 18.1252C96.9051 17.2552 96.4888 16.1899 96.4888 14.9309C96.4888 13.6718 96.9051 12.6066 97.7404 11.7366C98.5743 10.8666 99.612 10.4301 100.854 10.4301C102.088 10.4301 103.125 10.868 103.963 11.7423C104.801 12.6166 105.22 13.679 105.22 14.9309C105.22 16.1899 104.802 17.2552 103.968 18.1252ZM98.546 17.403C99.1746 18.0491 99.9433 18.3706 100.854 18.3706C101.764 18.3706 102.534 18.0476 103.161 17.403C103.79 16.757 104.106 15.9329 104.106 14.9309C104.106 13.9288 103.79 13.1047 103.161 12.4587C102.534 11.8127 101.764 11.4911 100.854 11.4911C99.9433 11.4911 99.1746 11.8141 98.546 12.4587C97.9188 13.1047 97.603 13.9288 97.603 14.9309C97.603 15.9329 97.9188 16.757 98.546 17.403Z" stroke="white"/>
<path d="M106.752 19.2378V10.624H108.08L112.208 17.3241H112.255L112.208 15.6645V10.624H113.3V19.2378H112.16L107.841 12.2118H107.794L107.841 13.8714V19.2378H106.752Z" stroke="white"/>
<g filter="url(#filter0_ii_152_3009)">
<path d="M14.9446 10.5321C14.5393 10.962 14.2998 11.6293 14.2998 12.4935V43.3682C14.2998 44.2337 14.5393 44.8997 14.9446 45.3296L15.0476 45.4301L32.2998 28.1347V27.9308V27.727L15.0476 10.4301L14.9446 10.5321Z" fill="url(#paint0_linear_152_3009)"/>
<path d="M38.3935 34.4301L32.2998 28.6343V28.4294V28.2246L38.395 22.4301L38.5323 22.5045L45.7535 26.4049C47.8152 27.5189 47.8152 29.3414 45.7535 30.4568L38.5323 34.3572L38.3935 34.4301Z" fill="url(#paint1_linear_152_3009)"/>
<g filter="url(#filter1_i_152_3009)">
<path d="M39.2998 34.3421L33.2243 28.4301L15.2998 45.8735C15.9614 46.5566 17.056 46.6405 18.2887 45.9603L39.2998 34.3421Z" fill="url(#paint2_linear_152_3009)"/>
</g>
<path d="M39.2998 22.517L18.2887 10.9005C17.056 10.2189 15.9614 10.3043 15.2998 10.9873L33.2257 28.4301L39.2998 22.517Z" fill="url(#paint3_linear_152_3009)"/>
</g>
<defs>
<filter id="filter0_ii_152_3009" x="14.2998" y="10.4301" width="33" height="36" filterUnits="userSpaceOnUse" color-interpolation-filters="sRGB">
<feFlood flood-opacity="0" result="BackgroundImageFix"/>
<feBlend mode="normal" in="SourceGraphic" in2="BackgroundImageFix" result="shape"/>
<feColorMatrix in="SourceAlpha" type="matrix" values="0 0 0 0 0 0 0 0 0 0 0 0 0 0 0 0 0 0 127 0" result="hardAlpha"/>
<feOffset dy="-0.21157"/>
<feComposite in2="hardAlpha" operator="arithmetic" k2="-1" k3="1"/>
<feColorMatrix type="matrix" values="0 0 0 0 0 0 0 0 0 0 0 0 0 0 0 0 0 0 0.12 0"/>
<feBlend mode="normal" in2="shape" result="effect1_innerShadow_152_3009"/>
<feColorMatrix in="SourceAlpha" type="matrix" values="0 0 0 0 0 0 0 0 0 0 0 0 0 0 0 0 0 0 127 0" result="hardAlpha"/>
<feOffset dy="0.21157"/>
<feComposite in2="hardAlpha" operator="arithmetic" k2="-1" k3="1"/>
<feColorMatrix type="matrix" values="0 0 0 0 1 0 0 0 0 1 0 0 0 0 1 0 0 0 0.25 0"/>
<feBlend mode="normal" in2="effect1_innerShadow_152_3009" result="effect2_innerShadow_152_3009"/>
</filter>
<filter id="filter1_i_152_3009" x="15.2998" y="28.4301" width="24" height="18" filterUnits="userSpaceOnUse" color-interpolation-filters="sRGB">
<feFlood flood-opacity="0" result="BackgroundImageFix"/>
<feBlend mode="normal" in="SourceGraphic" in2="BackgroundImageFix" result="shape"/>
<feColorMatrix in="SourceAlpha" type="matrix" values="0 0 0 0 0 0 0 0 0 0 0 0 0 0 0 0 0 0 127 0" result="hardAlpha"/>
<feOffset dy="-0.21157"/>
<feComposite in2="hardAlpha" operator="arithmetic" k2="-1" k3="1"/>
<feColorMatrix type="matrix" values="0 0 0 0 0 0 0 0 0 0 0 0 0 0 0 0 0 0 0.08 0"/>
<feBlend mode="normal" in2="shape" result="effect1_innerShadow_152_3009"/>
</filter>
<linearGradient id="paint0_linear_152_3009" x1="30.7705" y1="12.1668" x2="7.34233" y2="35.5364" gradientUnits="userSpaceOnUse">
<stop stop-color="#00A0FF"/>
<stop offset="0.0066" stop-color="#00A1FF"/>
<stop offset="0.2601" stop-color="#00BEFF"/>
<stop offset="0.5122" stop-color="#00D2FF"/>
<stop offset="0.7604" stop-color="#00DFFF"/>
<stop offset="1" stop-color="#00E3FF"/>
</linearGradient>
<linearGradient id="paint1_linear_152_3009" x1="48.4373" y1="28.4294" x2="12.7282" y2="28.4294" gradientUnits="userSpaceOnUse">
<stop stop-color="#FFE000"/>
<stop offset="0.4087" stop-color="#FFBD00"/>
<stop offset="0.7754" stop-color="#FFA500"/>
<stop offset="1" stop-color="#FF9C00"/>
</linearGradient>
<linearGradient id="paint2_linear_152_3009" x1="36.0004" y1="31.6407" x2="4.15913" y2="64.3628" gradientUnits="userSpaceOnUse">
<stop stop-color="#FF3A44"/>
<stop offset="1" stop-color="#C31162"/>
</linearGradient>
<linearGradient id="paint3_linear_152_3009" x1="10.7855" y1="0.683353" x2="25.003" y2="15.2947" gradientUnits="userSpaceOnUse">
<stop stop-color="#32A071"/>
<stop offset="0.0685" stop-color="#2DA771"/>
<stop offset="0.4762" stop-color="#15CF74"/>
<stop offset="0.8009" stop-color="#06E775"/>
<stop offset="1" stop-color="#00F076"/>
</linearGradient>
</defs>
</svg>