<svg width="17" height="20" viewBox="0 0 17 20" fill="none" xmlns="http://www.w3.org/2000/svg">
<path d="M0.86805 6.39183C2.69463 -1.27937 14.5906 -1.27052 16.4079 6.40069C17.4742 10.9007 14.7132 15.2192 12.1448 17.5755C11.2409 18.409 9.91289 19.6174 8.74509 19.6424C7.50512 19.669 6.25533 18.4605 5.29079 17.5755C2.73172 15.2192 -0.198228 10.8918 0.86805 6.39183Z" fill="#3757FF"/>
<path fill-rule="evenodd" clip-rule="evenodd" d="M8.64297 6.28571C7.6173 6.28571 6.78583 7.11719 6.78583 8.14286C6.78583 9.16853 7.6173 10 8.64297 10C9.66864 10 10.5001 9.16853 10.5001 8.14286C10.5001 7.11719 9.66864 6.28571 8.64297 6.28571ZM5.50011 8.14286C5.50011 6.40711 6.90722 5 8.64297 5C10.3787 5 11.7858 6.40711 11.7858 8.14286C11.7858 9.87861 10.3787 11.2857 8.64297 11.2857C6.90722 11.2857 5.50011 9.87861 5.50011 8.14286Z" fill="white"/>
</svg>
