<svg width="97" height="117" viewBox="0 0 97 117" fill="none" xmlns="http://www.w3.org/2000/svg">
<path d="M54.0796 52L49.6696 47.59L90.6511 6.63996L95.0611 11.0815L54.0796 52ZM85.6112 52.945C83.5322 52.945 81.6317 52.441 79.9097 51.433C78.2087 50.404 76.8436 49.039 75.8146 47.338C74.7856 45.616 74.2711 43.705 74.2711 41.605C74.2711 39.547 74.7961 37.657 75.8461 35.935C76.8961 34.213 78.2822 32.8375 80.0042 31.8085C81.7262 30.7795 83.5952 30.265 85.6112 30.265C87.6902 30.265 89.5907 30.7795 91.3127 31.8085C93.0347 32.8165 94.3997 34.1815 95.4077 35.9035C96.4367 37.6045 96.9511 39.505 96.9511 41.605C96.9511 43.705 96.4367 45.616 95.4077 47.338C94.3997 49.039 93.0347 50.404 91.3127 51.433C89.5907 52.441 87.6902 52.945 85.6112 52.945ZM85.6112 47.2435C86.6402 47.2435 87.5747 46.9915 88.4146 46.4875C89.2757 45.9625 89.9582 45.2695 90.4622 44.4085C90.9872 43.5475 91.2496 42.613 91.2496 41.605C91.2496 40.597 90.9872 39.6625 90.4622 38.8015C89.9582 37.9405 89.2757 37.258 88.4146 36.754C87.5747 36.229 86.6402 35.9665 85.6112 35.9665C84.6032 35.9665 83.6686 36.229 82.8076 36.754C81.9676 37.258 81.2851 37.9405 80.7601 38.8015C80.2561 39.6625 80.0042 40.597 80.0042 41.605C80.0042 42.613 80.2561 43.5475 80.7601 44.4085C81.2851 45.2695 81.9676 45.9625 82.8076 46.4875C83.6686 46.9915 84.6032 47.2435 85.6112 47.2435ZM59.1196 28.375C57.0406 28.375 55.1401 27.871 53.4181 26.863C51.6961 25.834 50.3206 24.469 49.2916 22.768C48.2836 21.046 47.7796 19.135 47.7796 17.035C47.7796 14.977 48.3046 13.087 49.3546 11.365C50.4046 9.64296 51.7906 8.26746 53.5126 7.23846C55.2346 6.20946 57.1036 5.69496 59.1196 5.69496C61.1986 5.69496 63.0887 6.20946 64.7896 7.23846C66.5117 8.24646 67.8871 9.61146 68.9161 11.3335C69.9451 13.0345 70.4596 14.935 70.4596 17.035C70.4596 19.135 69.9451 21.046 68.9161 22.768C67.8871 24.469 66.5117 25.834 64.7896 26.863C63.0887 27.871 61.1986 28.375 59.1196 28.375ZM59.1196 22.6735C60.1276 22.6735 61.0621 22.4215 61.9231 21.9175C62.7841 21.3925 63.4666 20.6995 63.9706 19.8385C64.4956 18.9775 64.7581 18.043 64.7581 17.035C64.7581 16.027 64.4956 15.0925 63.9706 14.2315C63.4666 13.3705 62.7841 12.688 61.9231 12.184C61.0621 11.659 60.1276 11.3965 59.1196 11.3965C58.1116 11.3965 57.1771 11.659 56.3161 12.184C55.4761 12.688 54.7936 13.3705 54.2686 14.2315C53.7436 15.0925 53.4811 16.027 53.4811 17.035C53.4811 18.043 53.7436 18.9775 54.2686 19.8385C54.7936 20.6995 55.4761 21.3925 56.3161 21.9175C57.1561 22.4215 58.0906 22.6735 59.1196 22.6735Z" fill="#4C67FC"/>
<path d="M61.1329 65.7074L66.2417 69.2847L32.9937 116.729L27.8795 113.121L61.1329 65.7074ZM29.9164 70.2522C31.9638 69.8912 33.9229 70.0575 35.7938 70.7512C37.6477 71.4692 39.229 72.5764 40.5377 74.0729C41.8501 75.59 42.6886 77.3826 43.0533 79.4507C43.4106 81.4775 43.2218 83.4299 42.4868 85.3081C41.7518 87.1863 40.6257 88.7815 39.1085 90.0939C37.5914 91.4063 35.8401 92.2376 33.8547 92.5876C31.8073 92.9486 29.8463 92.772 27.9718 92.0576C26.1009 91.364 24.5196 90.2567 23.2279 88.7359C21.9192 87.2395 21.0825 85.4572 20.7178 83.3891C20.3532 81.321 20.528 79.3497 21.2424 77.4752C21.9397 75.625 23.0469 74.0437 24.5641 72.7313C26.0849 71.4396 27.869 70.6132 29.9164 70.2522ZM30.9064 75.8671C29.8931 76.0458 29.0165 76.4562 28.2768 77.0984C27.5201 77.7649 26.9683 78.5659 26.6214 79.5014C26.2539 80.4405 26.1577 81.4063 26.3327 82.399C26.5077 83.3917 26.9285 84.2664 27.5951 85.0232C28.2409 85.7836 29.0316 86.3372 29.967 86.684C30.8854 87.0552 31.8513 87.1514 32.8647 86.9727C33.8574 86.7977 34.7321 86.3769 35.4888 85.7104C36.2285 85.0682 36.7822 84.2775 37.1497 83.3385C37.4965 82.403 37.5824 81.439 37.4074 80.4463C37.2323 79.4536 36.8219 78.577 36.176 77.8166C35.5095 77.0599 34.717 76.4959 33.7986 76.1248C32.8632 75.7779 31.8991 75.692 30.9064 75.8671ZM60.272 89.8487C62.3194 89.4877 64.2785 89.654 66.1494 90.3477C68.0239 91.062 69.6156 92.1674 70.9243 93.6639C72.216 95.1847 73.0442 96.9792 73.4088 99.0473C73.7662 101.074 73.5774 103.026 72.8424 104.905C72.1073 106.783 70.9812 108.378 69.4641 109.69C67.9469 111.003 66.1957 111.834 64.2103 112.184C62.1629 112.545 60.2123 112.367 58.3584 111.649C56.4875 110.955 54.8959 109.85 53.5835 108.332C52.2748 106.836 51.4381 105.054 51.0734 102.986C50.7087 100.918 50.8836 98.9462 51.5979 97.0717C52.3159 95.2178 53.4335 93.6347 54.9507 92.3223C56.4508 91.0343 58.2245 90.2097 60.272 89.8487ZM61.262 95.4636C60.2693 95.6386 59.3928 96.0491 58.6324 96.6949C57.8756 97.3615 57.3238 98.1625 56.977 99.0979C56.6095 100.037 56.5132 101.003 56.6883 101.996C56.8633 102.988 57.2841 103.863 57.9506 104.62C58.5965 105.38 59.3871 105.934 60.3226 106.281C61.2617 106.648 62.2276 106.744 63.2202 106.569C64.2129 106.394 65.0876 105.973 65.8444 105.307C66.5841 104.665 67.1377 103.874 67.5052 102.935C67.8728 101.996 67.969 101.03 67.794 100.037C67.6189 99.0446 67.1981 98.1699 66.5316 97.4132C65.8651 96.6564 65.0726 96.0924 64.1542 95.7213C63.2394 95.3708 62.2754 95.2849 61.262 95.4636Z" fill="#4C67FC"/>
<path d="M46.4381 32.3356L41.8034 36.5088L3.05428 -6.55973L7.7205 -10.7312L46.4381 32.3356ZM49.0321 0.896779C48.9232 2.97293 48.3205 4.84445 47.2237 6.51133C46.1071 8.15615 44.6726 9.44784 42.92 10.3864C41.1465 11.3239 39.2112 11.7377 37.1141 11.6278C35.0589 11.52 33.199 10.8968 31.5343 9.75816C29.8696 8.61948 28.5685 7.16339 27.6311 5.3899C26.6936 3.6164 26.2776 1.72304 26.3831 -0.290201C26.4919 -2.36635 27.1052 -4.23732 28.2229 -5.90311C29.3197 -7.56999 30.7542 -8.86168 32.5266 -9.77818C34.2791 -10.7167 36.204 -11.1311 38.3011 -11.0212C40.3982 -10.9113 42.2797 -10.2975 43.9454 -9.17974C45.5914 -8.0841 46.8831 -6.64953 47.8205 -4.87604C48.737 -3.10364 49.1409 -1.17937 49.0321 0.896779ZM43.3384 0.598385C43.3922 -0.429206 43.1895 -1.37561 42.7301 -2.24084C42.2509 -3.12813 41.5946 -3.84597 40.7611 -4.39434C39.9288 -4.96368 39.0093 -5.27473 38.0027 -5.32748C36.9961 -5.38024 36.0491 -5.16701 35.1618 -4.68778C34.2756 -4.22954 33.5583 -3.58369 33.01 -2.75025C32.4417 -1.93888 32.1307 -1.0194 32.0768 0.00819206C32.0241 1.01481 32.2373 1.96177 32.7165 2.84906C33.1759 3.71429 33.8217 4.43158 34.6541 5.00092C35.4875 5.54929 36.4075 5.84985 37.4141 5.90261C38.4208 5.95536 39.3672 5.75262 40.2534 5.29437C41.1407 4.81515 41.8684 4.16985 42.4367 3.35848C42.985 2.52504 43.2856 1.60501 43.3384 0.598385ZM23.1093 26.0661C23.0005 28.1422 22.3977 30.0138 21.3009 31.6806C20.1832 33.3464 18.7481 34.6486 16.9956 35.5872C15.2232 36.5037 13.2884 36.907 11.1913 36.7971C9.13614 36.6893 7.2762 36.0661 5.61151 34.9275C3.94683 33.7888 2.64575 32.3327 1.70828 30.5592C0.770815 28.7857 0.354837 26.8923 0.460346 24.8791C0.569153 22.8029 1.18186 20.9425 2.29847 19.2977C3.39522 17.6308 4.83033 16.3286 6.60383 15.3911C8.35635 14.4526 10.2812 14.0382 12.3783 14.1481C14.4754 14.258 16.3569 14.8718 18.0227 15.9896C19.6675 17.1062 20.9586 18.5512 21.8961 20.3247C22.8137 22.0761 23.2181 23.9899 23.1093 26.0661ZM17.4156 25.7677C17.4683 24.7611 17.2656 23.8147 16.8073 22.9285C16.3281 22.0412 15.6718 21.3233 14.8383 20.775C14.006 20.2056 13.0865 19.8946 12.0799 19.8418C11.0733 19.7891 10.1263 20.0023 9.23903 20.4815C8.35283 20.9398 7.63555 21.5856 7.08718 22.4191C6.51784 23.2514 6.20679 24.1709 6.15403 25.1775C6.10128 26.1841 6.31451 27.1311 6.79373 28.0184C7.25308 28.8836 7.89892 29.6009 8.73127 30.1702C9.56361 30.7396 10.4831 31.0506 11.4897 31.1034C12.4963 31.1561 13.4433 30.9429 14.3306 30.4637C15.2179 29.9844 15.9456 29.3392 16.5139 28.5278C17.0612 27.7153 17.3617 26.7953 17.4156 25.7677Z" fill="#4C67FC"/>
</svg>
