<svg width="167" height="168" viewBox="0 0 167 168" fill="none" xmlns="http://www.w3.org/2000/svg">
<path d="M114.319 163.143L96.8201 167.832L53.3271 5.26364L70.9052 0.620605L114.319 163.143ZM162.492 85.1947C159.472 90.4247 155.444 94.4736 150.408 97.3414C145.348 100.126 139.932 101.577 134.159 101.695C128.332 101.783 122.778 100.302 117.495 97.2516C112.318 94.2626 108.326 90.1969 105.519 85.0546C102.712 79.9122 101.265 74.4278 101.177 68.6015C101.09 62.7751 102.51 57.3262 105.438 52.2547C108.458 47.0248 112.512 42.9912 117.602 40.1538C122.638 37.286 128.055 35.8347 133.851 35.7999C139.624 35.6819 145.152 37.1479 150.435 40.1979C155.718 43.2479 159.778 47.3176 162.615 52.4072C165.43 57.4134 166.882 62.8297 166.969 68.6561C167.004 74.4519 165.511 79.9648 162.492 85.1947ZM148.149 76.914C149.644 74.3255 150.367 71.6086 150.319 68.7635C150.249 65.8351 149.497 63.1117 148.063 60.5933C146.66 58.0221 144.69 56.0046 142.154 54.5406C139.619 53.0766 136.886 52.3796 133.958 52.4498C131.06 52.4672 128.352 53.1928 125.834 54.6268C123.293 55.9774 121.275 57.9469 119.781 60.5355C118.317 63.0712 117.62 65.8033 117.69 68.7317C117.738 71.5768 118.464 74.285 119.867 76.8562C121.301 79.3745 123.286 81.3657 125.822 82.8297C128.357 84.2937 131.074 85.017 133.972 84.9997C136.9 84.9295 139.635 84.2191 142.176 82.8685C144.694 81.4346 146.685 79.4497 148.149 76.914ZM62.2079 116.152C59.1884 121.382 55.1603 125.431 50.1236 128.298C45.034 131.136 39.6025 132.613 33.8289 132.732C28.0331 132.766 22.4938 131.259 17.211 128.209C12.0339 125.22 8.04194 121.154 5.23508 116.012C2.42822 110.869 0.981012 105.385 0.893461 99.5584C0.805915 93.7321 2.22614 88.2832 5.15414 83.2117C8.17364 77.9818 12.2129 73.9746 17.272 71.19C22.3087 68.3222 27.7402 66.8445 33.5666 66.7569C39.3401 66.6389 44.8683 68.1048 50.151 71.1548C55.4338 74.2048 59.4938 78.2746 62.3312 83.3642C65.1157 88.4232 66.5518 93.8659 66.6393 99.6923C66.7045 105.435 65.2274 110.922 62.2079 116.152ZM47.8652 107.871C49.3292 105.335 50.0525 102.618 50.0352 99.7205C49.965 96.7921 49.2129 94.0687 47.779 91.5503C46.3756 88.9791 44.406 86.9615 41.8703 85.4975C39.3345 84.0335 36.6025 83.3366 33.674 83.4068C30.7761 83.4242 28.068 84.1498 25.5496 85.5837C22.9784 86.9872 20.9608 88.9567 19.4968 91.4925C18.0328 94.0282 17.3359 96.7603 17.4061 99.6887C17.454 102.534 18.1796 105.242 19.583 107.813C20.9865 110.384 22.956 112.402 25.4918 113.866C28.0275 115.33 30.7596 116.027 33.688 115.957C36.6164 115.886 39.351 115.176 41.8917 113.825C44.3795 112.444 46.3707 110.46 47.8652 107.871Z" fill="white"/>
</svg>
