<?xml version="1.0" encoding="utf-8"?><svg viewBox="0 0 29 29" xmlns="http://www.w3.org/2000/svg" xmlns:xlink="http://www.w3.org/1999/xlink"><style>:root>svg{display:none}:root>svg:target{display:block}</style><svg viewBox="0 0 24 24" id="cleaner" xmlns="http://www.w3.org/2000/svg"><g clip-path="url(#aa)" stroke-linecap="round" stroke-linejoin="round"><path d="M10 5.77L6.754 8l-1.48-2.743c-.54-1.008-.256-2.337.636-2.948.892-.61 2.069-.289 2.61.718L10 5.771zm2.214 3.809l-3.24 1.878c-1.887 1.096-2.461 3.308-1.549 5.07l2.103 4.09c.676 1.32 2.317 1.78 3.63 1.007l6.594-3.826c1.323-.763 1.64-2.358.728-3.542l-2.84-3.66c-1.231-1.585-3.54-2.113-5.426-1.016z"/><path d="M11.143 4.91L6 8l2.06 3.429 5.143-3.09-2.06-3.43zM14 17l2 3m-4-2l2 3m3-6l2 3M17.5 1.44L19 1l-.44 1.5L19 4l-1.5-.44L16 4l.44-1.5L16 1l1.5.44zm-14 19L5 20l-.44 1.5L5 23l-1.5-.44L2 23l.44-1.5L2 20l1.5.44z"/></g><defs><clipPath id="aa"><path d="M0 0h24v24H0z"/></clipPath></defs></svg><svg viewBox="0 0 22 22" id="edit" xmlns="http://www.w3.org/2000/svg"><path fill-rule="evenodd" clip-rule="evenodd" d="M1.918 1.918C3.322.514 5.4 0 8 0h2a1 1 0 110 2H8c-2.401 0-3.822.486-4.668 1.332C2.486 4.178 2 5.6 2 8v6c0 2.401.486 3.822 1.332 4.668C4.178 19.514 5.6 20 8 20h6c2.401 0 3.822-.486 4.668-1.332C19.514 17.822 20 16.4 20 14v-2a1 1 0 112 0v2c0 2.599-.514 4.678-1.918 6.082S16.6 22 14 22H8c-2.599 0-4.678-.514-6.082-1.918S0 16.6 0 14V8c0-2.599.514-4.678 1.918-6.082z"/><path fill-rule="evenodd" clip-rule="evenodd" d="M16.974.016c1.202-.118 2.364.416 3.479 1.531 1.115 1.116 1.65 2.277 1.531 3.48-.113 1.149-.803 2.081-1.531 2.81l-7.775 7.776-.012.011c-.247.239-.56.44-.857.59-.294.147-.65.283-1 .333l-2.974.425c-.801.11-1.587-.107-2.144-.662-.558-.556-.778-1.343-.66-2.15v-.002l.424-2.963v-.002c.05-.354.184-.712.333-1.008.15-.297.355-.615.601-.861l7.775-7.777C14.892.82 15.824.13 16.974.016zm.195 1.99c-.458.045-.977.342-1.59.956l-7.776 7.776c-.05.05-.14.171-.228.345a1.46 1.46 0 00-.14.389v.003l-.424 2.97v.004c-.04.269.041.394.092.444.052.052.183.135.457.098h.002l2.965-.424c.064-.01.207-.051.384-.14.171-.086.299-.178.36-.236l7.767-7.769c.614-.613.91-1.132.956-1.59.04-.407-.097-1.012-.956-1.87-.858-.859-1.462-.996-1.869-.956z"/><path fill-rule="evenodd" clip-rule="evenodd" d="M13.73 2.037a1 1 0 011.233.693 6.231 6.231 0 004.31 4.308 1 1 0 11-.546 1.924 8.231 8.231 0 01-5.69-5.692 1 1 0 01.693-1.233z"/></svg><svg viewBox="0 0 19 23" id="lamp" xmlns="http://www.w3.org/2000/svg"><path fill-rule="evenodd" clip-rule="evenodd" d="M9.46 6.11a1 1 0 01.433 1.347L9.357 8.5h.186c.472 0 1.025.205 1.307.759.26.513.143 1.046-.05 1.417l-.905 1.778a1 1 0 11-1.783-.908l.533-1.046h-.19c-.475 0-1.02-.21-1.3-.753-.263-.51-.153-1.045.044-1.425l.915-1.78a1 1 0 011.347-.431z"/><path fill-rule="evenodd" clip-rule="evenodd" d="M10.614 2.171C6.02 1.185 2 4.6 2 8.907c0 2.455 1.663 4.872 3.76 6.123a1 1 0 01.489.86V17h5.534v-1.12a1 1 0 01.488-.86c2.944-1.753 4.83-5.686 3.006-9.304-.902-1.787-2.65-3.105-4.663-3.545zM0 8.907C0 3.312 5.207-1.036 11.036.217h.003c2.57.561 4.836 2.245 6.024 4.598 2.303 4.566.064 9.319-3.28 11.61v.645a3.954 3.954 0 01-.002.305c-.01.179-.049.446-.194.72-.347.658-1.032.905-1.778.905H6.226c-.568.005-1.354-.074-1.765-.757a1.61 1.61 0 01-.216-.784 3.85 3.85 0 010-.243l.001-.037.003-.13v-.613C1.9 14.832 0 12.001 0 8.906zM12.727 22.45c-2.111-.6-4.342-.6-6.454 0a1 1 0 01-.546-1.924 13.801 13.801 0 017.546 0 1 1 0 11-.546 1.924z"/></svg><svg viewBox="0 0 20 20" id="phone" xmlns="http://www.w3.org/2000/svg"><g clip-path="url(#da)"><path d="M1 15.88c0 .306.068.621.213.927.145.306.332.595.579.867.417.459.876.79 1.396 1.003a4.28 4.28 0 001.66.323c.868 0 1.796-.204 2.775-.62a14.957 14.957 0 002.928-1.683 24.46 24.46 0 002.793-2.38 24.167 24.167 0 002.375-2.78c.698-.969 1.26-1.938 1.668-2.899.409-.968.613-1.895.613-2.779 0-.578-.102-1.13-.306-1.64a3.913 3.913 0 00-.98-1.42C16.17 2.264 15.575 2 14.945 2c-.238 0-.477.051-.69.153a1.387 1.387 0 00-.57.476l-1.975 2.78a2.904 2.904 0 00-.34.595 1.34 1.34 0 00-.12.518c0 .204.06.408.18.603.11.196.272.4.476.604l.647.671a.454.454 0 01.136.34.772.772 0 01-.026.196c-.025.068-.05.119-.068.17-.153.28-.417.646-.791 1.088a29.14 29.14 0 01-1.235 1.343c-.46.45-.902.867-1.353 1.25-.443.373-.809.628-1.098.781-.043.018-.094.043-.154.069a.589.589 0 01-.212.034.469.469 0 01-.35-.145l-.646-.637a2.611 2.611 0 00-.613-.476 1.135 1.135 0 00-.605-.179 1.36 1.36 0 00-.519.11 3.294 3.294 0 00-.596.332l-2.818 1.998a1.29 1.29 0 00-.468.543A1.742 1.742 0 001 15.88z"/></g><defs><clipPath id="da"><path transform="matrix(-1 0 0 1 20 0)" d="M0 0h20v20H0z"/></clipPath></defs></svg><svg viewBox="0 0 25 25" id="send" xmlns="http://www.w3.org/2000/svg"><path fill-rule="evenodd" clip-rule="evenodd" d="M21.761 2.776c-.692-.693-2.1-1.036-4.342-.289L6.807 6.025C5.08 6.602 3.855 7.249 3.08 7.89c-.78.643-1.012 1.197-1.012 1.61 0 .415.233.967 1.011 1.609.775.639 2 1.283 3.727 1.858l3.15 1.05a.9.9 0 01.57.57l1.05 3.15c.574 1.726 1.219 2.95 1.859 3.726.642.778 1.196 1.011 1.611 1.011.415 0 .97-.233 1.612-1.011.64-.775 1.285-2 1.86-3.726l3.536-10.611c.742-2.243.4-3.656-.293-4.35zm1.274-1.272c1.397 1.4 1.561 3.668.728 6.187v.002l-3.538 10.612c-.613 1.842-1.346 3.295-2.18 4.304-.83 1.006-1.845 1.665-2.999 1.665-1.153 0-2.168-.659-2.999-1.665-.834-1.01-1.567-2.462-2.18-4.304l-.907-2.723-2.723-.907c-1.842-.613-3.294-1.345-4.303-2.177C.928 11.668.268 10.654.268 9.5c0-1.153.66-2.168 1.665-2.999 1.01-.834 2.461-1.568 4.303-2.184L16.849.78c2.52-.84 4.787-.677 6.186.724z"/><path fill-rule="evenodd" clip-rule="evenodd" d="M15.02 9.209a.9.9 0 01.001 1.273l-4.475 4.487a.9.9 0 11-1.274-1.271l4.475-4.487a.9.9 0 011.272-.002z"/></svg><svg viewBox="0 0 28 26" id="settings" xmlns="http://www.w3.org/2000/svg"><path fill-rule="evenodd" clip-rule="evenodd" d="M13.668 10.118a2.85 2.85 0 100 5.7 2.85 2.85 0 000-5.7zm-4.65 2.85a4.65 4.65 0 119.3 0 4.65 4.65 0 01-9.3 0z"/><path fill-rule="evenodd" clip-rule="evenodd" d="M10.705 2.661c-.345-.574-1.072-.755-1.614-.432l-.013.007-2.163 1.238a1.474 1.474 0 00-.542 2.006l-.78.45.779-.451c.665 1.147.84 2.397.251 3.418-.588 1.02-1.757 1.496-3.08 1.496-.812 0-1.475.669-1.475 1.475v2.2c0 .806.663 1.475 1.475 1.475 1.323 0 2.492.475 3.08 1.496.588 1.02.414 2.27-.25 3.417a1.474 1.474 0 00.542 2.005L9.078 23.7l.013.008c.542.322 1.27.142 1.614-.433l.134-.232c.665-1.147 1.662-1.921 2.84-1.921 1.179 0 2.173.775 2.832 1.922v.002l.133.23c.345.574 1.072.754 1.614.432l.013-.008 2.163-1.237c.7-.4.946-1.298.541-2.008-.663-1.146-.837-2.395-.249-3.415.588-1.021 1.757-1.496 3.08-1.496.812 0 1.475-.67 1.475-1.475v-2.2c0-.813-.67-1.475-1.475-1.475-1.323 0-2.492-.475-3.08-1.496-.588-1.021-.414-2.27.25-3.417a1.474 1.474 0 00-.542-2.006l-2.163-1.238-.013-.007c-.542-.323-1.27-.142-1.614.432l-.134.233c-.665 1.146-1.662 1.92-2.84 1.92-1.179 0-2.173-.774-2.832-1.922V2.89l-.133-.229zM8.178.678c1.43-.846 3.246-.328 4.076 1.067l.006.01.14.24c.466.814.958 1.02 1.27 1.02.313 0 .81-.208 1.282-1.024l.143-.246C15.925.35 17.74-.168 19.17.678l2.156 1.233a3.274 3.274 0 011.208 4.47c-.473.816-.405 1.348-.25 1.617.156.27.581.595 1.52.595a3.282 3.282 0 013.276 3.275v2.2a3.282 3.282 0 01-3.275 3.275c-.94 0-1.365.325-1.52.594-.156.27-.224.801.248 1.617l.003.005a3.27 3.27 0 01-1.21 4.465l-2.156 1.234c-1.43.846-3.246.327-4.076-1.068l-.006-.009-.137-.237-.002-.004c-.466-.813-.96-1.02-1.27-1.02-.313 0-.81.208-1.283 1.024l-.143.247c-.83 1.394-2.645 1.913-4.076 1.067l-2.156-1.234a3.274 3.274 0 01-1.208-4.469v-.001c.473-.816.405-1.347.25-1.617-.156-.27-.581-.594-1.52-.594a3.282 3.282 0 01-3.276-3.275v-2.2a3.282 3.282 0 013.275-3.275c.94 0 1.365-.325 1.52-.595.156-.27.224-.8-.248-1.616l-.001-.001a3.274 3.274 0 011.208-4.47L8.178.678zm0 0L8.17.682l.46.773-.447-.78-.006.003z"/></svg><svg viewBox="0 0 29 29" id="wallet" xmlns="http://www.w3.org/2000/svg"><path fill-rule="evenodd" clip-rule="evenodd" d="M6.168 18.318a4.099 4.099 0 00-4.1 4.1 4 4 0 00.591 2.103l.008.012a4.062 4.062 0 003.501 1.985 4.062 4.062 0 003.502-1.985l.007-.012a4 4 0 00.591-2.103c0-2.265-1.834-4.1-4.1-4.1zm-5.9 4.1c0-3.26 2.64-5.9 5.9-5.9 3.26 0 5.9 2.64 5.9 5.9a5.802 5.802 0 01-.855 3.042 5.862 5.862 0 01-5.045 2.858 5.862 5.862 0 01-5.045-2.858 5.802 5.802 0 01-.855-3.042z"/><path fill-rule="evenodd" clip-rule="evenodd" d="M8.78 20.582a.9.9 0 01-.049 1.271L6.07 24.317a.9.9 0 01-1.248-.024l-1.237-1.238a.9.9 0 111.272-1.273l.626.626 2.027-1.875a.9.9 0 011.272.05zm4.3-17.502L9.654 6.518h11.349a3.376 3.376 0 00-.8-1.22l-.01-.01-2.184-2.209a3.506 3.506 0 00-4.927.001zm-1.269-1.275a5.306 5.306 0 017.468 0l.006.006 2.183 2.208a5.117 5.117 0 011.538 3.418.9.9 0 01-1.046.932 4.849 4.849 0 00-.79-.05H8.67c-.307 0-.599.021-.876.064a.9.9 0 01-.941-1.292c.227-.456.542-.858.893-1.209l4.065-4.077z"/><path fill-rule="evenodd" clip-rule="evenodd" d="M8.668 8.318a5.754 5.754 0 00-.9.068c-1.393.175-2.49.772-3.241 1.654-.754.884-1.209 2.112-1.209 3.628v3.586a5.899 5.899 0 018.75 5.164 5.808 5.808 0 01-.742 2.85h9.842c1.67 0 2.993-.553 3.895-1.455.902-.902 1.455-2.224 1.455-3.895v-6.25c0-1.527-.463-2.762-1.228-3.65-.764-.884-1.878-1.48-3.288-1.643a4.846 4.846 0 00-.834-.056h-12.5zM7.531 6.602a7.56 7.56 0 011.137-.084h12.5c.337 0 .699.013 1.063.071 1.805.215 3.34 1 4.422 2.254 1.084 1.257 1.665 2.927 1.665 4.825v6.25c0 2.08-.697 3.883-1.982 5.168-1.285 1.285-3.088 1.982-5.168 1.982H9.456a.9.9 0 01-.579-1.59c.307-.257.578-.577.789-.938l.011-.02a4 4 0 00.591-2.102c0-2.265-1.834-4.1-4.1-4.1a4.08 4.08 0 00-3.074 1.395.9.9 0 01-1.576-.595v-5.45c0-1.883.57-3.543 1.639-4.796 1.067-1.253 2.585-2.043 4.374-2.27z"/><path fill-rule="evenodd" clip-rule="evenodd" d="M20.268 16.793c0-1.872 1.528-3.4 3.4-3.4h3.75a.9.9 0 010 1.8h-3.75c-.878 0-1.6.722-1.6 1.6 0 .878.722 1.6 1.6 1.6h3.75a.9.9 0 010 1.8h-3.75a3.407 3.407 0 01-3.4-3.4z"/></svg></svg>