<?xml version="1.0" encoding="utf-8"?><svg viewBox="0 0 800 800" xmlns="http://www.w3.org/2000/svg" xmlns:xlink="http://www.w3.org/1999/xlink"><style>:root>svg{display:none}:root>svg:target{display:block}</style><svg viewBox="0 0 23 23" id="arrow-down" xmlns="http://www.w3.org/2000/svg"><path d="M18.694 9.15l-5.977 5.976a1.82 1.82 0 01-2.567 0L4.174 9.15"/></svg><svg viewBox="0 0 20 20" id="arrow-left" xmlns="http://www.w3.org/2000/svg"><path fill-rule="evenodd" clip-rule="evenodd" d="M10.259 3.245a.835.835 0 010 1.18L5.85 8.833h9.65a.835.835 0 010 1.67h-9.65l4.408 4.408a.835.835 0 11-1.181 1.181L3.245 10.26a.835.835 0 010-1.181l5.833-5.833a.835.835 0 011.18 0z"/></svg><svg viewBox="0 0 40 40" id="circle-arrow" xmlns="http://www.w3.org/2000/svg"><mask id="ca"><path d="M40 20c0 11.046-8.954 20-20 20S0 31.046 0 20 8.954 0 20 0s20 8.954 20 20z"/></mask><path d="M12.308 19.513a1 1 0 100 2v-2zm15.066 1.707a1 1 0 000-1.414l-6.364-6.364a1 1 0 10-1.414 1.414l5.657 5.657-5.657 5.657a1 1 0 001.414 1.414l6.364-6.364zm-15.066.293h14.359v-2h-14.36v2zM38 20c0 9.941-8.059 18-18 18v4c12.15 0 22-9.85 22-22h-4zM20 38c-9.941 0-18-8.059-18-18h-4c0 12.15 9.85 22 22 22v-4zM2 20c0-9.941 8.059-18 18-18v-4C7.85-2-2 7.85-2 20h4zM20 2c9.941 0 18 8.059 18 18h4C42 7.85 32.15-2 20-2v4z" mask="url(#ca)"/></svg><svg viewBox="0 0 24 24" id="cleaner" xmlns="http://www.w3.org/2000/svg"><g clip-path="url(#dclip0_7_202)"><path d="M10 5.77L6.754 8l-1.48-2.743c-.54-1.008-.256-2.337.636-2.948.892-.61 2.069-.289 2.61.718L10 5.771zM12.214 9.579l-3.24 1.878c-1.887 1.096-2.461 3.308-1.549 5.07l2.103 4.09c.676 1.32 2.317 1.78 3.63 1.007l6.594-3.826c1.323-.763 1.64-2.358.728-3.542l-2.84-3.66C16.409 9.011 14.1 8.483 12.214 9.58z"/><path d="M11.143 4.91L6 8l2.06 3.429 5.143-3.09-2.06-3.43zM14 17l2 3M12 18l2 3M17 15l2 3M17.5 1.44L19 1l-.44 1.5L19 4l-1.5-.44L16 4l.44-1.5L16 1l1.5.44zM3.5 20.44L5 20l-.44 1.5L5 23l-1.5-.44L2 23l.44-1.5L2 20l1.5.44z"/></g><defs><clipPath id="dclip0_7_202"><path d="M0 0h24v24H0z"/></clipPath></defs></svg><svg viewBox="0 0 22 22" id="clock" xmlns="http://www.w3.org/2000/svg"><path fill-rule="evenodd" clip-rule="evenodd" d="M11 2c-4.968 0-9 4.032-9 9s4.032 9 9 9 9-4.032 9-9-4.032-9-9-9zM0 11C0 4.928 4.928 0 11 0s11 4.928 11 11-4.928 11-11 11S0 17.072 0 11z"/><path fill-rule="evenodd" clip-rule="evenodd" d="M10.63 5.51a1 1 0 011 1v4.1c0 .1.041.28.156.48.115.202.249.33.334.38l.002.001 3.1 1.85a1 1 0 11-1.025 1.718L11.1 13.19h-.002c-.454-.27-.81-.688-1.05-1.108-.24-.422-.418-.942-.418-1.472v-4.1a1 1 0 011-1z"/></svg><svg viewBox="0 0 36 36" id="close-circle" xmlns="http://www.w3.org/2000/svg"><path d="M18 33c8.25 0 15-6.75 15-15S26.25 3 18 3 3 9.75 3 18s6.75 15 15 15zM13.755 22.245l8.49-8.49M22.245 22.245l-8.49-8.49"/></svg><svg viewBox="0 0 20 22" id="directbox-notif" xmlns="http://www.w3.org/2000/svg"><path fill-rule="evenodd" clip-rule="evenodd" d="M.677 11.603C1.467 10.46 2.906 10 5 10c.565 0 1.023.058 1.443.222.39.152.687.375.923.553l.034.025c.047.035.09.074.13.117l1.009 1.078a1.999 1.999 0 002.911.001l.003-.003 1.02-1.08a.99.99 0 01.16-.138c.237-.178.534-.401.924-.553.42-.164.878-.222 1.443-.222 2.094 0 3.534.461 4.323 1.603.374.541.532 1.146.606 1.71.071.544.071 1.125.071 1.653V16c0 1.469-.26 3.003-1.23 4.173C17.768 21.382 16.185 22 14 22H6c-2.595 0-4.284-.574-5.198-1.897-.436-.632-.626-1.344-.715-2.028C0 17.412 0 16.7 0 16.035v-1.07c0-.527 0-1.108.07-1.652.075-.564.233-1.169.607-1.71zm1.377 1.97C2.002 13.973 2 14.431 2 15v1c0 .706.002 1.295.07 1.816.067.512.19.878.378 1.15C2.784 19.455 3.595 20 6 20h8c1.815 0 2.732-.502 3.23-1.103.53-.64.77-1.606.77-2.897v-1c0-.568-.002-1.026-.054-1.428-.051-.393-.143-.65-.269-.832-.21-.306-.771-.74-2.677-.74-.435 0-.617.047-.717.086-.102.04-.189.095-.415.263l-.958 1.015-.002.001a3.998 3.998 0 01-5.825.002l-.003-.004-.95-1.015c-.225-.167-.311-.223-.413-.262-.1-.04-.282-.086-.717-.086-1.906 0-2.466.434-2.677.74-.126.182-.218.44-.269.832z"/><path fill-rule="evenodd" clip-rule="evenodd" d="M2.677 1.603C3.467.46 4.906 0 7 0h6c2.094 0 3.534.461 4.323 1.603.374.541.532 1.146.606 1.71C18 3.857 18 4.438 18 4.966V11a1 1 0 11-2 0V5c0-.568-.002-1.026-.054-1.428-.051-.393-.143-.65-.269-.832C15.467 2.434 14.906 2 13 2H7c-1.906 0-2.466.434-2.677.74-.126.182-.218.44-.269.832C4.002 3.974 4 4.432 4 5v6a1 1 0 11-2 0V4.966c0-.528 0-1.11.07-1.653.075-.564.233-1.169.607-1.71z"/><path fill-rule="evenodd" clip-rule="evenodd" d="M7.55 8.23a1 1 0 011-1h3.33a1 1 0 110 2H8.55a1 1 0 01-1-1zM6.72 5.23a1 1 0 011-1h5a1 1 0 110 2h-5a1 1 0 01-1-1z"/></svg><svg viewBox="0 0 22 22" id="edit" xmlns="http://www.w3.org/2000/svg"><path fill-rule="evenodd" clip-rule="evenodd" d="M1.918 1.918C3.322.514 5.4 0 8 0h2a1 1 0 110 2H8c-2.401 0-3.822.486-4.668 1.332C2.486 4.178 2 5.6 2 8v6c0 2.401.486 3.822 1.332 4.668C4.178 19.514 5.6 20 8 20h6c2.401 0 3.822-.486 4.668-1.332C19.514 17.822 20 16.4 20 14v-2a1 1 0 112 0v2c0 2.599-.514 4.678-1.918 6.082S16.6 22 14 22H8c-2.599 0-4.678-.514-6.082-1.918S0 16.6 0 14V8c0-2.599.514-4.678 1.918-6.082z"/><path fill-rule="evenodd" clip-rule="evenodd" d="M16.974.016c1.202-.118 2.364.416 3.479 1.531 1.115 1.116 1.65 2.277 1.531 3.48-.113 1.149-.803 2.081-1.531 2.81l-7.775 7.776-.012.011c-.247.239-.56.44-.857.59-.294.147-.65.283-1 .333l-2.974.425c-.801.11-1.587-.107-2.144-.662-.558-.556-.778-1.343-.66-2.15v-.002l.424-2.963v-.002c.05-.354.184-.712.333-1.008.15-.297.355-.615.601-.861l7.775-7.777C14.892.82 15.824.13 16.974.016zm.195 1.99c-.458.045-.977.342-1.59.956l-7.776 7.776c-.05.05-.14.171-.228.345-.087.174-.13.319-.14.389v.003l-.424 2.97v.004c-.04.269.041.394.092.444.052.052.183.135.457.098h.002l2.965-.424c.064-.01.207-.051.384-.14.171-.086.299-.178.36-.236l7.767-7.769c.614-.613.91-1.132.956-1.59.04-.407-.097-1.012-.956-1.87-.858-.859-1.462-.996-1.869-.956z"/><path fill-rule="evenodd" clip-rule="evenodd" d="M13.73 2.037a1 1 0 011.233.693 6.231 6.231 0 004.31 4.308 1 1 0 11-.546 1.924 8.231 8.231 0 01-5.69-5.692 1 1 0 01.693-1.233z"/></svg><svg viewBox="0 0 25 25" id="info-circle" xmlns="http://www.w3.org/2000/svg"><path d="M12.934 2.945c-5.5 0-10 4.5-10 10s4.5 10 10 10 10-4.5 10-10-4.5-10-10-10zM12.934 16.945v-5M12.94 8.945h-.01"/></svg><svg viewBox="0 0 19 23" id="lamp" xmlns="http://www.w3.org/2000/svg"><path fill-rule="evenodd" clip-rule="evenodd" d="M9.46 6.11a1 1 0 01.433 1.347L9.357 8.5h.186c.472 0 1.025.205 1.307.759.26.513.143 1.046-.05 1.417l-.905 1.778a1 1 0 11-1.783-.908l.533-1.046h-.19c-.475 0-1.02-.21-1.3-.753-.263-.51-.153-1.045.044-1.425l.915-1.78a1 1 0 011.347-.431z"/><path fill-rule="evenodd" clip-rule="evenodd" d="M10.614 2.171C6.02 1.185 2 4.6 2 8.907c0 2.455 1.663 4.872 3.76 6.123a1 1 0 01.489.86V17h5.534v-1.12a1 1 0 01.488-.86c2.944-1.753 4.83-5.686 3.006-9.304-.902-1.787-2.65-3.105-4.663-3.545zM0 8.907C0 3.312 5.207-1.036 11.036.217h.003c2.57.561 4.836 2.245 6.024 4.598 2.303 4.566.064 9.319-3.28 11.61v.645a3.954 3.954 0 01-.002.305c-.01.179-.049.446-.194.72-.347.658-1.032.905-1.778.905H6.226c-.568.005-1.354-.074-1.765-.757a1.61 1.61 0 01-.216-.784 3.85 3.85 0 010-.243l.001-.037.003-.13v-.613C1.9 14.832 0 12.001 0 8.906zM12.727 22.45c-2.111-.6-4.342-.6-6.454 0a1 1 0 01-.546-1.924c2.468-.701 5.078-.701 7.546 0a1 1 0 11-.546 1.924z"/></svg><svg viewBox="0 0 20 23" id="location" xmlns="http://www.w3.org/2000/svg"><path fill-rule="evenodd" clip-rule="evenodd" d="M9.498 2c-3.272-.002-6.437 1.88-7.284 5.577C1.2 12.029 3.997 16.47 6.63 18.992l.143.137c.485.464.97.93 1.478 1.296.57.413 1.009.582 1.336.575.304-.007.759-.194 1.348-.619.563-.405 1.108-.922 1.594-1.388l.002-.001c2.619-2.5 5.263-6.934 4.245-11.406C15.933 3.888 12.77 2.002 9.498 2zm9.228 5.142C17.636 2.36 13.514.002 9.498 0 5.484-.003 1.36 2.35.265 7.131v.001c-1.252 5.495 2.177 10.619 4.982 13.305l.001.001.149.143c.47.45 1.055 1.011 1.68 1.464.68.492 1.563.976 2.554.954.936-.02 1.807-.515 2.474-.995.692-.5 1.332-1.11 1.807-1.566 2.838-2.71 6.06-7.821 4.813-13.296z"/><path fill-rule="evenodd" clip-rule="evenodd" d="M9.5 7a2.5 2.5 0 100 5 2.5 2.5 0 000-5zM5 9.5a4.5 4.5 0 119 0 4.5 4.5 0 01-9 0z"/></svg><svg viewBox="0 0 24 24" id="object" xmlns="http://www.w3.org/2000/svg"><g fill-rule="evenodd"><path d="M0 0h24v24H0z"/><path d="M13.5 21v-3a1 1 0 00-1-1h-1a1 1 0 00-1 1v3H5V4a2 2 0 012-2h10a2 2 0 012 2v17h-5.5zM9 4a1 1 0 00-1 1v1a1 1 0 001 1h1a1 1 0 001-1V5a1 1 0 00-1-1H9zm5 0a1 1 0 00-1 1v1a1 1 0 001 1h1a1 1 0 001-1V5a1 1 0 00-1-1h-1zM9 8a1 1 0 00-1 1v1a1 1 0 001 1h1a1 1 0 001-1V9a1 1 0 00-1-1H9zm0 4a1 1 0 00-1 1v1a1 1 0 001 1h1a1 1 0 001-1v-1a1 1 0 00-1-1H9zm5 0a1 1 0 00-1 1v1a1 1 0 001 1h1a1 1 0 001-1v-1a1 1 0 00-1-1h-1z"/><rect x="13" y="8" width="3" height="3" rx="1"/><path d="M4 21h16a1 1 0 011 1v.4a.6.6 0 01-.6.6H3.6a.6.6 0 01-.6-.6V22a1 1 0 011-1z" opacity=".3"/></g></svg><svg viewBox="0 0 20 20" id="phone" xmlns="http://www.w3.org/2000/svg"><g clip-path="url(#mclip0_1_225)"><path d="M1 15.88c0 .306.068.621.213.927.145.306.332.595.579.867.417.459.876.79 1.396 1.003a4.28 4.28 0 001.66.323c.868 0 1.796-.204 2.775-.62a14.957 14.957 0 002.928-1.683 24.46 24.46 0 002.793-2.38 24.167 24.167 0 002.375-2.78c.698-.969 1.26-1.938 1.668-2.899.409-.968.613-1.895.613-2.779 0-.578-.102-1.13-.306-1.64a3.913 3.913 0 00-.98-1.42C16.17 2.264 15.575 2 14.945 2c-.238 0-.477.051-.69.153a1.387 1.387 0 00-.57.476l-1.975 2.78a2.904 2.904 0 00-.34.595 1.34 1.34 0 00-.12.518c0 .204.06.408.18.603.11.196.272.4.476.604l.647.671a.454.454 0 01.136.34.772.772 0 01-.026.196c-.025.068-.05.119-.068.17-.153.28-.417.646-.791 1.088-.383.442-.792.892-1.235 1.343-.46.45-.902.867-1.353 1.25-.443.373-.809.628-1.098.781-.043.018-.094.043-.154.069a.589.589 0 01-.212.034.469.469 0 01-.35-.145l-.646-.637a2.611 2.611 0 00-.613-.476 1.135 1.135 0 00-.605-.179 1.36 1.36 0 00-.519.11 3.294 3.294 0 00-.596.332l-2.818 1.998a1.29 1.29 0 00-.468.543A1.742 1.742 0 001 15.88z"/></g><defs><clipPath id="mclip0_1_225"><path transform="matrix(-1 0 0 1 20 0)" d="M0 0h20v20H0z"/></clipPath></defs></svg><svg viewBox="0 0 19 20" id="phone-stroke" xmlns="http://www.w3.org/2000/svg"><path fill-rule="evenodd" clip-rule="evenodd" d="M4.056 2.939c-.321 0-.676.125-1.07.512l-.007.007-.008.008c-.35.33-.587.685-.734 1.058l-.002.005C2.08 4.913 2 5.339 2 5.798c0 .727.168 1.52.534 2.39.374.879.895 1.782 1.557 2.7.675.925 1.431 1.812 2.272 2.66.85.84 1.738 1.596 2.674 2.279a13.956 13.956 0 002.732 1.57c.878.375 1.673.542 2.383.542.47 0 .892-.087 1.276-.247l.005-.002a2.84 2.84 0 001.035-.75c.177-.194.31-.4.415-.622.083-.174.117-.343.117-.499 0-.08-.014-.16-.056-.27a.341.341 0 00-.117-.114l-.01-.007-2.809-1.991a2.294 2.294 0 00-.404-.228.38.38 0 00-.141-.036h-.002c-.009 0-.028 0-.083.033l-.028.017-.03.015a1.666 1.666 0 00-.368.297l-.005.004-.645.636c-.27.27-.63.434-1.053.434-.154 0-.349-.017-.563-.097l-.022-.008-.02-.01a4.603 4.603 0 01-.1-.044l-.007-.003-.025-.011-.002-.001-.047-.019-.047-.025c-.377-.199-.804-.503-1.276-.902l-.001-.001c-.478-.405-.94-.84-1.407-1.298l-.007-.007-.007-.006c-.46-.47-.883-.936-1.276-1.39l-.008-.008c-.392-.463-.705-.888-.906-1.255l-.043-.078-.024-.074-.007-.016-.003-.007a3.07 3.07 0 01-.05-.123l-.02-.053-.014-.056a1.769 1.769 0 01-.055-.438c0-.375.13-.744.421-1.039l.649-.673.007-.007c.159-.159.258-.292.313-.389l.008-.014.008-.013c.03-.05.032-.075.033-.082a.591.591 0 00-.038-.126l-.004-.007-.003-.008c-.04-.1-.11-.227-.226-.389l-.004-.006-1.982-2.789A.388.388 0 004.327 3l-.007-.003-.007-.004a.603.603 0 00-.257-.054zm-2.464-.922C2.286 1.337 3.121.939 4.056.939c.376 0 .76.079 1.115.248.365.17.702.43.963.805l1.97 2.773c.187.26.338.52.45.79.114.268.197.58.197.906 0 .4-.117.777-.317 1.11a3.89 3.89 0 01-.625.797l-.395.41a8.1 8.1 0 00.543.704c.37.427.76.857 1.181 1.286.45.44.87.835 1.293 1.194a7 7 0 00.718.542l.392-.387c.245-.244.52-.473.826-.637.326-.193.69-.307 1.096-.307.308 0 .606.066.897.184.271.111.53.26.78.43l.008.006 2.822 2c.347.242.631.556.809.96l.007.015.006.016c.122.304.208.644.208 1.035 0 .456-.102.917-.309 1.354-.184.39-.425.763-.742 1.112a4.839 4.839 0 01-1.755 1.255 5.28 5.28 0 01-2.042.399c-1.026 0-2.087-.241-3.166-.7-1.056-.45-2.1-1.05-3.125-1.795l-.002-.001a25.45 25.45 0 01-2.906-2.477l-.007-.007a25.154 25.154 0 01-2.473-2.894l-.003-.005C1.737 11.042 1.135 10.01.693 8.97L.69 8.966C.241 7.896 0 6.838 0 5.798c0-.696.123-1.375.377-2.01a4.91 4.91 0 011.215-1.771z"/></svg><svg viewBox="0 0 13 17" id="play" xmlns="http://www.w3.org/2000/svg"><path d="M2 2v12.642M10.32 2v12.642"/></svg><svg viewBox="-1 0 12 12" id="play-two" xmlns="http://www.w3.org/2000/svg"><path d="M9.074 7.733l-5.766 3.898C1.903 12.581 0 11.584 0 9.898V2.102C0 .416 1.903-.581 3.308.369l5.766 3.898a2.088 2.088 0 010 3.466" fill-rule="evenodd"/></svg><svg viewBox="0 0 25 25" id="profile-user" xmlns="http://www.w3.org/2000/svg"><path d="M9.594 11.348c-.1-.01-.22-.01-.33 0-2.38-.081-4.27-2.071-4.27-4.52 0-2.5 1.98-4.531 4.44-4.531 2.45 0 4.44 2.03 4.44 4.53-.01 2.45-1.9 4.44-4.28 4.521zM16.843 4.338c1.94 0 3.5 1.602 3.5 3.571 0 1.93-1.5 3.5-3.37 3.572-.08-.01-.17-.01-.26 0M4.594 15.114c-2.42 1.653-2.42 4.348 0 5.99 2.75 1.878 7.26 1.878 10.01 0 2.42-1.653 2.42-4.347 0-5.99-2.74-1.867-7.25-1.867-10.01 0zM18.773 20.666c.72-.153 1.4-.45 1.96-.888 1.56-1.194 1.56-3.164 0-4.358-.55-.428-1.22-.714-1.93-.877"/></svg><svg viewBox="0 0 22 23" id="receipt-text" xmlns="http://www.w3.org/2000/svg"><path d="M5 8h6m-5.25 4h4.5M21 5v2.42C21 9 20 10 18.42 10H15V3.01C15 1.9 15.91 1 17.02 1c1.09.01 2.09.45 2.81 1.17C20.55 2.9 21 3.9 21 5zM1 20c0 .83.94 1.3 1.6.8l1.71-1.28c.4-.3.96-.26 1.32.1l1.66 1.67c.39.39 1.03.39 1.42 0l1.68-1.68c.35-.35.91-.39 1.3-.09l1.71 1.28c.66.49 1.6.02 1.6-.8V3c0-1.1.9-2 2-2H5C2 1 1 2.79 1 5v15z"/></svg><svg viewBox="0 0 17 17" id="search" xmlns="http://www.w3.org/2000/svg"><path d="M16 16l-3.625-3.625m1.958-4.708A6.667 6.667 0 111 7.667a6.667 6.667 0 0113.333 0z"/></svg><svg viewBox="0 0 25 25" id="send" xmlns="http://www.w3.org/2000/svg"><path fill-rule="evenodd" clip-rule="evenodd" d="M21.761 2.776c-.692-.693-2.1-1.036-4.342-.289L6.807 6.025C5.08 6.602 3.855 7.249 3.08 7.89 2.3 8.533 2.068 9.087 2.068 9.5c0 .415.233.967 1.011 1.609.775.639 2 1.283 3.727 1.858l3.15 1.05a.9.9 0 01.57.57l1.05 3.15c.574 1.726 1.219 2.95 1.859 3.726.642.778 1.196 1.011 1.611 1.011.415 0 .97-.233 1.612-1.011.64-.775 1.285-2 1.86-3.726l3.536-10.611c.742-2.243.4-3.656-.293-4.35zm1.274-1.272c1.397 1.4 1.561 3.668.728 6.187v.002l-3.538 10.612c-.613 1.842-1.346 3.295-2.18 4.304-.83 1.006-1.845 1.665-2.999 1.665-1.153 0-2.168-.659-2.999-1.665-.834-1.01-1.567-2.462-2.18-4.304l-.907-2.723-2.723-.907c-1.842-.613-3.294-1.345-4.303-2.177C.928 11.668.268 10.654.268 9.5c0-1.153.66-2.168 1.665-2.999 1.01-.834 2.461-1.568 4.303-2.184L16.849.78c2.52-.84 4.787-.677 6.186.724z"/><path fill-rule="evenodd" clip-rule="evenodd" d="M15.02 9.209a.9.9 0 01.001 1.273l-4.475 4.487a.9.9 0 11-1.274-1.271l4.475-4.487a.9.9 0 011.272-.002z"/></svg><svg viewBox="0 0 28 26" id="settings" xmlns="http://www.w3.org/2000/svg"><path fill-rule="evenodd" clip-rule="evenodd" d="M13.668 10.118a2.85 2.85 0 100 5.7 2.85 2.85 0 000-5.7zm-4.65 2.85a4.65 4.65 0 119.3 0 4.65 4.65 0 01-9.3 0z"/><path fill-rule="evenodd" clip-rule="evenodd" d="M10.705 2.661c-.345-.574-1.072-.755-1.614-.432l-.013.007-2.163 1.238a1.474 1.474 0 00-.542 2.006l-.78.45.779-.451c.665 1.147.84 2.397.251 3.418-.588 1.02-1.757 1.496-3.08 1.496-.812 0-1.475.669-1.475 1.475v2.2c0 .806.663 1.475 1.475 1.475 1.323 0 2.492.475 3.08 1.496.588 1.02.414 2.27-.25 3.417a1.474 1.474 0 00.542 2.005L9.078 23.7l.013.008c.542.322 1.27.142 1.614-.433l.134-.232c.665-1.147 1.662-1.921 2.84-1.921 1.179 0 2.173.775 2.832 1.922v.002l.133.23c.345.574 1.072.754 1.614.432l.013-.008 2.163-1.237c.7-.4.946-1.298.541-2.008-.663-1.146-.837-2.395-.249-3.415.588-1.021 1.757-1.496 3.08-1.496.812 0 1.475-.67 1.475-1.475v-2.2c0-.813-.67-1.475-1.475-1.475-1.323 0-2.492-.475-3.08-1.496-.588-1.021-.414-2.27.25-3.417a1.474 1.474 0 00-.542-2.006l-2.163-1.238-.013-.007c-.542-.323-1.27-.142-1.614.432l-.134.233c-.665 1.146-1.662 1.92-2.84 1.92-1.179 0-2.173-.774-2.832-1.922V2.89l-.133-.229zM8.178.678c1.43-.846 3.246-.328 4.076 1.067l.006.01.14.24c.466.814.958 1.02 1.27 1.02.313 0 .81-.208 1.282-1.024l.143-.246C15.925.35 17.74-.168 19.17.678l2.156 1.233a3.274 3.274 0 011.208 4.47c-.473.816-.405 1.348-.25 1.617.156.27.581.595 1.52.595a3.282 3.282 0 013.276 3.275v2.2a3.282 3.282 0 01-3.275 3.275c-.94 0-1.365.325-1.52.594-.156.27-.224.801.248 1.617l.003.005a3.27 3.27 0 01-1.21 4.465l-2.156 1.234c-1.43.846-3.246.327-4.076-1.068l-.006-.009-.137-.237-.002-.004c-.466-.813-.96-1.02-1.27-1.02-.313 0-.81.208-1.283 1.024l-.143.247c-.83 1.394-2.645 1.913-4.076 1.067l-2.156-1.234a3.274 3.274 0 01-1.208-4.469v-.001c.473-.816.405-1.347.25-1.617-.156-.27-.581-.594-1.52-.594a3.282 3.282 0 01-3.276-3.275v-2.2a3.282 3.282 0 013.275-3.275c.94 0 1.365-.325 1.52-.595.156-.27.224-.8-.248-1.616l-.001-.001a3.274 3.274 0 011.208-4.47L8.178.678zm0 0L8.17.682l.46.773-.447-.78-.006.003z"/></svg><svg viewBox="0 0 14 12" id="tg" xmlns="http://www.w3.org/2000/svg"><path fill-rule="evenodd" clip-rule="evenodd" d="M.962 5.166c3.759-1.694 6.264-2.81 7.518-3.35C12.06.277 12.804.01 13.29 0c.106-.002.344.025.499.155.13.11.166.257.183.361.017.104.039.34.022.525-.194 2.108-1.034 7.225-1.46 9.586-.182 1-.537 1.334-.882 1.367-.748.071-1.317-.512-2.042-1.003-1.135-.77-1.776-1.248-2.877-1.999-1.273-.868-.448-1.344.278-2.124.19-.203 3.488-3.306 3.552-3.588.008-.035.015-.166-.06-.236-.075-.069-.187-.045-.267-.026-.114.026-1.926 1.265-5.438 3.717-.514.365-.98.543-1.398.534-.46-.01-1.345-.27-2.004-.49C.59 6.506-.052 6.363.003 5.902c.03-.24.35-.486.96-.737z"/></svg><svg viewBox="0 0 25 25" id="user-square" xmlns="http://www.w3.org/2000/svg"><path d="M18.573 22.565c-.88.26-1.92.38-3.14.38h-6c-1.22 0-2.26-.12-3.14-.38.22-2.6 2.89-4.65 6.14-4.65 3.25 0 5.92 2.05 6.14 4.65z"/><path d="M15.434 2.945h-6c-5 0-7 2-7 7v6c0 3.78 1.14 5.85 3.86 6.62.22-2.6 2.89-4.65 6.14-4.65 3.25 0 5.92 2.05 6.14 4.65 2.72-.77 3.86-2.84 3.86-6.62v-6c0-5-2-7-7-7zm-3 12.17c-1.98 0-3.58-1.61-3.58-3.59 0-1.98 1.6-3.58 3.58-3.58s3.58 1.6 3.58 3.58-1.6 3.59-3.58 3.59z"/><path d="M16.014 11.525c0 1.98-1.6 3.59-3.58 3.59s-3.58-1.61-3.58-3.59c0-1.98 1.6-3.58 3.58-3.58s3.58 1.6 3.58 3.58z"/></svg><svg viewBox="0 0 29 29" id="wallet" xmlns="http://www.w3.org/2000/svg"><path fill-rule="evenodd" clip-rule="evenodd" d="M6.168 18.318a4.099 4.099 0 00-4.1 4.1c0 .77.215 1.493.591 2.103l.008.012a4.062 4.062 0 003.501 1.985 4.062 4.062 0 003.502-1.985l.007-.012a4 4 0 00.591-2.103c0-2.265-1.834-4.1-4.1-4.1zm-5.9 4.1c0-3.26 2.64-5.9 5.9-5.9 3.26 0 5.9 2.64 5.9 5.9a5.802 5.802 0 01-.855 3.042 5.862 5.862 0 01-5.045 2.858 5.862 5.862 0 01-5.045-2.858 5.802 5.802 0 01-.855-3.042z"/><path fill-rule="evenodd" clip-rule="evenodd" d="M8.78 20.582a.9.9 0 01-.049 1.271L6.07 24.317a.9.9 0 01-1.248-.024l-1.237-1.238a.9.9 0 111.272-1.273l.626.626 2.027-1.875a.9.9 0 011.272.05zM13.08 3.08L9.654 6.518h11.349a3.376 3.376 0 00-.8-1.22l-.01-.01-2.184-2.209a3.506 3.506 0 00-4.927.001zm-1.269-1.275a5.306 5.306 0 017.468 0l.006.006 2.183 2.208a5.117 5.117 0 011.538 3.418.9.9 0 01-1.046.932 4.849 4.849 0 00-.79-.05H8.67c-.307 0-.599.021-.876.064a.9.9 0 01-.941-1.292c.227-.456.542-.858.893-1.209l4.065-4.077z"/><path fill-rule="evenodd" clip-rule="evenodd" d="M8.668 8.318a5.754 5.754 0 00-.9.068c-1.393.175-2.49.772-3.241 1.654-.754.884-1.209 2.112-1.209 3.628v3.586a5.899 5.899 0 018.75 5.164 5.808 5.808 0 01-.742 2.85h9.842c1.67 0 2.993-.553 3.895-1.455.902-.902 1.455-2.224 1.455-3.895v-6.25c0-1.527-.463-2.762-1.228-3.65-.764-.884-1.878-1.48-3.288-1.643a4.846 4.846 0 00-.834-.056h-12.5zM7.531 6.602a7.56 7.56 0 011.137-.084h12.5c.337 0 .699.013 1.063.071 1.805.215 3.34 1 4.422 2.254 1.084 1.257 1.665 2.927 1.665 4.825v6.25c0 2.08-.697 3.883-1.982 5.168-1.285 1.285-3.088 1.982-5.168 1.982H9.456a.9.9 0 01-.579-1.59c.307-.257.578-.577.789-.938l.011-.02a4 4 0 00.591-2.102c0-2.265-1.834-4.1-4.1-4.1a4.08 4.08 0 00-3.074 1.395.9.9 0 01-1.576-.595v-5.45c0-1.883.57-3.543 1.639-4.796 1.067-1.253 2.585-2.043 4.374-2.27z"/><path fill-rule="evenodd" clip-rule="evenodd" d="M20.268 16.793c0-1.872 1.528-3.4 3.4-3.4h3.75a.9.9 0 010 1.8h-3.75c-.878 0-1.6.722-1.6 1.6 0 .878.722 1.6 1.6 1.6h3.75a.9.9 0 010 1.8h-3.75a3.407 3.407 0 01-3.4-3.4z"/></svg><svg viewBox="0 0 24 24" id="warning" xmlns="http://www.w3.org/2000/svg"><path fill-rule="evenodd" clip-rule="evenodd" d="M11.84 7.165c.372 0 .673.302.673.674v4.716a.674.674 0 01-1.347 0V7.84c0-.372.301-.674.673-.674z"/><path fill-rule="evenodd" clip-rule="evenodd" d="M12.914 3.635a2.168 2.168 0 00-2.157 0l-5.334 3.08a2.177 2.177 0 00-1.076 1.87v6.144c0 .776.412 1.487 1.074 1.87l5.333 3.079h.002a2.168 2.168 0 002.157.002l5.332-3.08h.002a2.178 2.178 0 001.076-1.87V8.584c0-.772-.409-1.477-1.076-1.87l-.002-.002-5.33-3.077zm-2.83-1.167a3.515 3.515 0 013.5-.002l.003.002 5.34 3.083a3.514 3.514 0 011.743 3.034v6.144a3.525 3.525 0 01-1.743 3.034l-.004.002-5.336 3.081a3.515 3.515 0 01-3.501.002l-.003-.002-5.336-3.08A3.503 3.503 0 013 14.728V8.585c0-1.248.668-2.402 1.743-3.034l.004-.002 5.336-3.081z"/><path fill-rule="evenodd" clip-rule="evenodd" d="M11.84 14.532c.496 0 .898.402.898.898v.09a.898.898 0 01-1.797 0v-.09c0-.496.402-.898.898-.898z"/></svg></svg>