<svg width="115" height="35" viewBox="0 0 115 35" fill="none" xmlns="http://www.w3.org/2000/svg">
<path d="M5.26 24V11.04H7.213L11.695 20.22L16.177 11.04H18.13V24H16.105V15.693L12.127 24H11.263L7.294 15.693V24H5.26ZM20.4784 18.366V16.665H25.8784V18.366H20.4784ZM28.217 24V11.04H38.72V24H36.551V13.074H30.386V24H28.217ZM45.9134 24.27C44.9654 24.27 44.1704 24.045 43.5284 23.595C42.8864 23.145 42.4034 22.533 42.0794 21.759C41.7554 20.979 41.5934 20.106 41.5934 19.14C41.5934 18.162 41.7554 17.286 42.0794 16.512C42.4034 15.738 42.8774 15.129 43.5014 14.685C44.1314 14.235 44.9084 14.01 45.8324 14.01C46.7504 14.01 47.5454 14.235 48.2174 14.685C48.8954 15.129 49.4204 15.738 49.7924 16.512C50.1644 17.28 50.3504 18.156 50.3504 19.14C50.3504 20.112 50.1674 20.985 49.8014 21.759C49.4354 22.533 48.9194 23.145 48.2534 23.595C47.5874 24.045 46.8074 24.27 45.9134 24.27ZM41.2244 28.32V14.28H43.1414V21.102H43.4114V28.32H41.2244ZM45.5804 22.326C46.1444 22.326 46.6094 22.185 46.9754 21.903C47.3414 21.621 47.6114 21.24 47.7854 20.76C47.9654 20.274 48.0554 19.734 48.0554 19.14C48.0554 18.552 47.9654 18.018 47.7854 17.538C47.6054 17.052 47.3264 16.668 46.9484 16.386C46.5704 16.098 46.0904 15.954 45.5084 15.954C44.9564 15.954 44.5064 16.089 44.1584 16.359C43.8104 16.623 43.5524 16.995 43.3844 17.475C43.2224 17.949 43.1414 18.504 43.1414 19.14C43.1414 19.77 43.2224 20.325 43.3844 20.805C43.5524 21.285 43.8134 21.66 44.1674 21.93C44.5274 22.194 44.9984 22.326 45.5804 22.326ZM56.6272 24.27C55.6552 24.27 54.8062 24.051 54.0802 23.613C53.3542 23.175 52.7902 22.572 52.3882 21.804C51.9922 21.03 51.7942 20.142 51.7942 19.14C51.7942 18.12 51.9982 17.226 52.4062 16.458C52.8142 15.69 53.3812 15.09 54.1072 14.658C54.8332 14.226 55.6732 14.01 56.6272 14.01C57.6052 14.01 58.4572 14.229 59.1832 14.667C59.9092 15.105 60.4732 15.711 60.8752 16.485C61.2772 17.253 61.4782 18.138 61.4782 19.14C61.4782 20.148 61.2742 21.039 60.8662 21.813C60.4642 22.581 59.9002 23.184 59.1742 23.622C58.4482 24.054 57.5992 24.27 56.6272 24.27ZM56.6272 22.236C57.4912 22.236 58.1332 21.948 58.5532 21.372C58.9732 20.796 59.1832 20.052 59.1832 19.14C59.1832 18.198 58.9702 17.448 58.5442 16.89C58.1182 16.326 57.4792 16.044 56.6272 16.044C56.0452 16.044 55.5652 16.176 55.1872 16.44C54.8152 16.698 54.5392 17.061 54.3592 17.529C54.1792 17.991 54.0892 18.528 54.0892 19.14C54.0892 20.082 54.3022 20.835 54.7282 21.399C55.1602 21.957 55.7932 22.236 56.6272 22.236ZM63.4432 24V14.28H71.8852V24H69.7162V16.314H65.6122V24H63.4432ZM78.8313 24.27C77.8473 24.27 76.9833 24.057 76.2393 23.631C75.4953 23.205 74.9133 22.614 74.4933 21.858C74.0793 21.102 73.8723 20.232 73.8723 19.248C73.8723 18.186 74.0763 17.265 74.4843 16.485C74.8923 15.699 75.4593 15.09 76.1853 14.658C76.9113 14.226 77.7513 14.01 78.7053 14.01C79.7133 14.01 80.5683 14.247 81.2703 14.721C81.9783 15.189 82.5033 15.852 82.8453 16.71C83.1873 17.568 83.3163 18.579 83.2323 19.743H81.0813V18.951C81.0753 17.895 80.8893 17.124 80.5233 16.638C80.1573 16.152 79.5813 15.909 78.7953 15.909C77.9073 15.909 77.2473 16.185 76.8153 16.737C76.3833 17.283 76.1673 18.084 76.1673 19.14C76.1673 20.124 76.3833 20.886 76.8153 21.426C77.2473 21.966 77.8773 22.236 78.7053 22.236C79.2393 22.236 79.6983 22.119 80.0823 21.885C80.4723 21.645 80.7723 21.3 80.9823 20.85L83.1243 21.498C82.7523 22.374 82.1763 23.055 81.3963 23.541C80.6223 24.027 79.7673 24.27 78.8313 24.27ZM75.4833 19.743V18.105H82.1703V19.743H75.4833ZM89.9115 24.27C88.9635 24.27 88.1685 24.045 87.5265 23.595C86.8845 23.145 86.4015 22.533 86.0775 21.759C85.7535 20.979 85.5915 20.106 85.5915 19.14C85.5915 18.162 85.7535 17.286 86.0775 16.512C86.4015 15.738 86.8755 15.129 87.4995 14.685C88.1295 14.235 88.9065 14.01 89.8305 14.01C90.7485 14.01 91.5435 14.235 92.2155 14.685C92.8935 15.129 93.4185 15.738 93.7905 16.512C94.1625 17.28 94.3485 18.156 94.3485 19.14C94.3485 20.112 94.1655 20.985 93.7995 21.759C93.4335 22.533 92.9175 23.145 92.2515 23.595C91.5855 24.045 90.8055 24.27 89.9115 24.27ZM85.2225 28.32V14.28H87.1395V21.102H87.4095V28.32H85.2225ZM89.5785 22.326C90.1425 22.326 90.6075 22.185 90.9735 21.903C91.3395 21.621 91.6095 21.24 91.7835 20.76C91.9635 20.274 92.0535 19.734 92.0535 19.14C92.0535 18.552 91.9635 18.018 91.7835 17.538C91.6035 17.052 91.3245 16.668 90.9465 16.386C90.5685 16.098 90.0885 15.954 89.5065 15.954C88.9545 15.954 88.5045 16.089 88.1565 16.359C87.8085 16.623 87.5505 16.995 87.3825 17.475C87.2205 17.949 87.1395 18.504 87.1395 19.14C87.1395 19.77 87.2205 20.325 87.3825 20.805C87.5505 21.285 87.8115 21.66 88.1655 21.93C88.5255 22.194 88.9965 22.326 89.5785 22.326ZM98.7713 24V16.206H95.5223V14.28H104.189V16.206H100.94V24H98.7713ZM114.319 14.28V24H112.24V17.655L107.614 24H105.877V14.28H107.956V20.463L112.6 14.28H114.319Z" fill="#212121"/>
</svg>
