<svg width="300" height="288" viewBox="0 0 300 288" fill="none" xmlns="http://www.w3.org/2000/svg">
<path d="M38.4 282.24L11.52 255.36L261.312 5.75999L288.192 32.832L38.4 282.24ZM230.592 288C217.92 288 206.336 284.928 195.84 278.784C185.472 272.512 177.152 264.192 170.88 253.824C164.608 243.328 161.472 231.68 161.472 218.88C161.472 206.336 164.672 194.816 171.072 184.32C177.472 173.824 185.92 165.44 196.416 159.168C206.912 152.896 218.304 149.76 230.592 149.76C243.264 149.76 254.848 152.896 265.344 159.168C275.84 165.312 284.16 173.632 290.304 184.128C296.576 194.496 299.712 206.08 299.712 218.88C299.712 231.68 296.576 243.328 290.304 253.824C284.16 264.192 275.84 272.512 265.344 278.784C254.848 284.928 243.264 288 230.592 288ZM230.592 253.248C236.864 253.248 242.56 251.712 247.68 248.64C252.928 245.44 257.088 241.216 260.16 235.968C263.36 230.72 264.96 225.024 264.96 218.88C264.96 212.736 263.36 207.04 260.16 201.792C257.088 196.544 252.928 192.384 247.68 189.312C242.56 186.112 236.864 184.512 230.592 184.512C224.448 184.512 218.752 186.112 213.504 189.312C208.384 192.384 204.224 196.544 201.024 201.792C197.952 207.04 196.416 212.736 196.416 218.88C196.416 225.024 197.952 230.72 201.024 235.968C204.224 241.216 208.384 245.44 213.504 248.64C218.752 251.712 224.448 253.248 230.592 253.248ZM69.12 138.24C56.448 138.24 44.864 135.168 34.368 129.024C23.872 122.752 15.488 114.432 9.216 104.064C3.072 93.568 0 81.92 0 69.12C0 56.576 3.2 45.056 9.6 34.56C16 24.064 24.448 15.68 34.944 9.40798C45.44 3.13599 56.832 0 69.12 0C81.792 0 93.312 3.13599 103.68 9.40798C114.176 15.552 122.56 23.872 128.832 34.368C135.104 44.736 138.24 56.32 138.24 69.12C138.24 81.92 135.104 93.568 128.832 104.064C122.56 114.432 114.176 122.752 103.68 129.024C93.312 135.168 81.792 138.24 69.12 138.24ZM69.12 103.488C75.264 103.488 80.96 101.952 86.208 98.88C91.456 95.68 95.616 91.456 98.688 86.208C101.888 80.96 103.488 75.264 103.488 69.12C103.488 62.976 101.888 57.28 98.688 52.032C95.616 46.784 91.456 42.624 86.208 39.552C80.96 36.352 75.264 34.752 69.12 34.752C62.976 34.752 57.28 36.352 52.032 39.552C46.912 42.624 42.752 46.784 39.552 52.032C36.352 57.28 34.752 62.976 34.752 69.12C34.752 75.264 36.352 80.96 39.552 86.208C42.752 91.456 46.912 95.68 52.032 98.88C57.152 101.952 62.848 103.488 69.12 103.488Z" fill="white"/>
</svg>
