<svg width="22" height="22" viewBox="0 0 22 22" fill="none" xmlns="http://www.w3.org/2000/svg">
<path fill-rule="evenodd" clip-rule="evenodd" d="M11 2C6.03228 2 2 6.03228 2 11C2 15.9677 6.03228 20 11 20C15.9677 20 20 15.9677 20 11C20 6.03228 15.9677 2 11 2ZM0 11C0 4.92772 4.92772 0 11 0C17.0723 0 22 4.92772 22 11C22 17.0723 17.0723 22 11 22C4.92772 22 0 17.0723 0 11Z" fill="#3757FF"/>
<path fill-rule="evenodd" clip-rule="evenodd" d="M10.6299 5.51001C11.1822 5.51001 11.6299 5.95772 11.6299 6.51001V10.61C11.6299 10.7097 11.6714 10.8898 11.7861 11.0909C11.9008 11.292 12.0346 11.4193 12.1197 11.4697L12.1223 11.4713L12.1223 11.4713L15.2223 13.3213C15.6966 13.6043 15.8516 14.2182 15.5686 14.6925C15.2856 15.1667 14.6717 15.3217 14.1974 15.0387L11.1001 13.1903C11.0996 13.19 11.099 13.1897 11.0985 13.1894C10.6444 12.9198 10.2887 12.5025 10.0487 12.0816C9.80837 11.6602 9.62988 11.1403 9.62988 10.61V6.51001C9.62988 5.95772 10.0776 5.51001 10.6299 5.51001Z" fill="#3757FF"/>
</svg>
