<svg width="20" height="22" viewBox="0 0 20 22" fill="none" xmlns="http://www.w3.org/2000/svg">
<path fill-rule="evenodd" clip-rule="evenodd" d="M0.677248 11.6029C1.46606 10.461 2.90556 10 5 10C5.56509 10 6.02262 10.0583 6.44288 10.2219C6.83264 10.3737 7.12972 10.5969 7.36635 10.7747C7.37771 10.7833 7.38892 10.7917 7.4 10.8C7.4468 10.8351 7.49043 10.8742 7.53038 10.917L8.53854 11.995C9.33576 12.8373 10.6674 12.8322 11.4501 11.9964L11.453 11.9934L12.473 10.9134C12.512 10.872 12.5545 10.8341 12.6 10.8C12.6111 10.7917 12.6223 10.7833 12.6337 10.7747C12.8703 10.5969 13.1674 10.3737 13.5571 10.2219C13.9774 10.0583 14.4349 10 15 10C17.0944 10 18.5339 10.461 19.3228 11.6029C19.6969 12.1444 19.8554 12.7488 19.9291 13.3132C20.0001 13.8568 20 14.4382 20 14.9658V16C20 17.4688 19.7401 19.0025 18.77 20.1731C17.7681 21.382 16.1849 22 14 22H6C3.4052 22 1.71584 21.4263 0.802157 20.1033C0.365639 19.4712 0.17588 18.759 0.0865506 18.0751C-5.56409e-05 17.4121 -2.58395e-05 16.6996 1.93629e-06 16.0356L1.45945e-06 14.9658C-3.20384e-05 14.4382 -6.8754e-05 13.8568 0.0709223 13.3132C0.144624 12.7488 0.303139 12.1444 0.677248 11.6029ZM2.05408 13.5721C2.00161 13.974 2 14.4316 2 15V16C2 16.7059 2.00161 17.2948 2.06971 17.8161C2.13663 18.3285 2.25937 18.6938 2.44785 18.9667C2.78417 19.4537 3.59481 20 6 20H14C15.8151 20 16.7319 19.498 17.23 18.8969C17.7599 18.2575 18 17.2912 18 16V15C18 14.4316 17.9984 13.974 17.9459 13.5721C17.8946 13.1793 17.8031 12.9219 17.6772 12.7396C17.4661 12.434 16.9056 12 15 12C14.5651 12 14.3826 12.0467 14.2829 12.0856C14.1809 12.1253 14.0942 12.1809 13.8678 12.3494L12.9099 13.3636C12.9094 13.3641 12.9089 13.3647 12.9083 13.3652C11.3313 15.0473 8.66541 15.0421 7.08299 13.3666L7.07961 13.363L6.13028 12.3479C5.9053 12.1806 5.81878 12.1252 5.71712 12.0856C5.61738 12.0467 5.43492 12 5 12C3.09445 12 2.53394 12.434 2.32276 12.7396C2.19687 12.9219 2.10538 13.1793 2.05408 13.5721Z" fill="#3757FF"/>
<path fill-rule="evenodd" clip-rule="evenodd" d="M2.67725 1.60285C3.46606 0.461044 4.90556 0 7 0H13C15.0944 0 16.5339 0.461044 17.3228 1.60285C17.6969 2.14438 17.8554 2.74879 17.9291 3.31316C18.0001 3.85678 18 4.43824 18 4.96583L18 11C18 11.5523 17.5523 12 17 12C16.4477 12 16 11.5523 16 11V5C16 4.43158 15.9984 3.97396 15.9459 3.57215C15.8946 3.17933 15.8031 2.92187 15.6772 2.73965C15.4661 2.43396 14.9056 2 13 2H7C5.09445 2 4.53394 2.43396 4.32276 2.73965C4.19687 2.92187 4.10538 3.17933 4.05408 3.57215C4.00161 3.97396 4 4.43158 4 5V11C4 11.5523 3.55229 12 3 12C2.44772 12 2 11.5523 2 11L2 4.96583C1.99997 4.43824 1.99993 3.85678 2.07092 3.31316C2.14462 2.74879 2.30314 2.14438 2.67725 1.60285Z" fill="#3757FF"/>
<path fill-rule="evenodd" clip-rule="evenodd" d="M7.5498 8.22998C7.5498 7.6777 7.99752 7.22998 8.5498 7.22998H11.8798C12.4321 7.22998 12.8798 7.6777 12.8798 8.22998C12.8798 8.78227 12.4321 9.22998 11.8798 9.22998H8.5498C7.99752 9.22998 7.5498 8.78227 7.5498 8.22998Z" fill="#3757FF"/>
<path fill-rule="evenodd" clip-rule="evenodd" d="M6.71973 5.22998C6.71973 4.6777 7.16744 4.22998 7.71973 4.22998H12.7197C13.272 4.22998 13.7197 4.6777 13.7197 5.22998C13.7197 5.78227 13.272 6.22998 12.7197 6.22998H7.71973C7.16744 6.22998 6.71973 5.78227 6.71973 5.22998Z" fill="#3757FF"/>
</svg>
