<svg width="19" height="23" viewBox="0 0 19 23" fill="none" xmlns="http://www.w3.org/2000/svg">
<path fill-rule="evenodd" clip-rule="evenodd" d="M9.46085 6.1107C9.95199 6.36328 10.1454 6.96619 9.89281 7.45733L9.3566 8.49999H9.54297C10.0148 8.49999 10.568 8.70479 10.8496 9.25866C11.1104 9.77155 10.9928 10.3051 10.8002 10.6763L9.89454 12.4539C9.64383 12.946 9.04167 13.1417 8.54956 12.891C8.05746 12.6403 7.86177 12.0382 8.11248 11.546L8.64541 10.5H8.45549C7.98037 10.5 7.43566 10.2903 7.15498 9.74711C6.89161 9.23737 7.0016 8.70165 7.1993 8.32172L8.11422 6.54266C8.3668 6.05151 8.9697 5.85812 9.46085 6.1107Z" fill="white"/>
<path fill-rule="evenodd" clip-rule="evenodd" d="M10.6141 2.17148C6.01914 1.18471 2 4.59884 2 8.90675C2 11.3623 3.66256 13.7792 5.76081 15.0302C6.06338 15.2106 6.24872 15.5368 6.24872 15.8891V16.9998H11.7828V15.8791C11.7828 15.5267 11.9684 15.2003 12.2711 15.0199C15.2147 13.2668 17.1017 9.33366 15.2768 5.71589C14.3753 3.92856 12.6265 2.61116 10.6141 2.17148ZM0 8.90675C0 3.3118 5.20748 -1.03641 11.036 0.216474L11.039 0.217135C13.6094 0.778129 15.8754 2.46155 17.0625 4.81517C19.3657 9.38127 17.1267 14.1338 13.7828 16.4258V17.0395C13.7828 17.0518 13.783 17.0581 13.7834 17.0703C13.7839 17.0833 13.7845 17.103 13.7853 17.1439C13.7865 17.2014 13.7871 17.2827 13.7814 17.3745C13.7701 17.5536 13.7324 17.8209 13.5871 18.0958C13.2398 18.7528 12.5549 18.9998 11.8094 18.9998H6.22646C5.65796 19.0045 4.87169 18.9258 4.46055 18.2432C4.27765 17.9395 4.25084 17.6325 4.24461 17.459C4.24131 17.367 4.24345 17.2789 4.24517 17.2157C4.24553 17.2027 4.24587 17.1905 4.24619 17.179C4.24766 17.1271 4.24872 17.0894 4.24872 17.0495V16.4361C1.90121 14.8318 0 12.0013 0 8.90675Z" fill="white"/>
<path fill-rule="evenodd" clip-rule="evenodd" d="M12.7269 22.4495C10.6155 21.8502 8.38454 21.8502 6.27306 22.4495C5.74176 22.6003 5.18881 22.2918 5.038 21.7605C4.8872 21.2293 5.19565 20.6763 5.72694 20.5255C8.19546 19.8248 10.8045 19.8248 13.2731 20.5255C13.8044 20.6763 14.1128 21.2293 13.962 21.7605C13.8112 22.2918 13.2582 22.6003 12.7269 22.4495Z" fill="white"/>
</svg>
