<svg width="20" height="23" viewBox="0 0 20 23" fill="none" xmlns="http://www.w3.org/2000/svg">
<path fill-rule="evenodd" clip-rule="evenodd" d="M9.49799 2C6.2256 1.9978 3.06091 3.87933 2.21433 7.57673C1.20046 12.029 3.9967 16.4702 6.62989 18.9925C6.67751 19.0379 6.72511 19.0835 6.77272 19.129C7.25801 19.5934 7.74375 20.0582 8.25053 20.4252C8.82063 20.8381 9.25974 21.007 9.58652 20.9998C9.89149 20.993 10.346 20.8058 10.9354 20.3811C11.4981 19.9755 12.0433 19.459 12.5287 18.9934L12.5306 18.9916C15.1497 16.492 17.7941 12.058 16.7755 7.58602C15.9334 3.88834 12.7706 2.0022 9.49799 2ZM18.7255 7.14187C17.6367 2.36085 13.5143 0.00269937 9.49933 2.31634e-06C5.48423 -0.00269485 1.35897 2.35005 0.264628 7.131L0.264392 7.13203C-0.987203 12.6267 2.44224 17.7509 5.24687 20.4372L5.24813 20.4384C5.29619 20.4843 5.34572 20.5318 5.39661 20.5805C5.86623 21.0306 6.45234 21.5923 7.07733 22.045C7.75676 22.5371 8.64034 23.0213 9.63102 22.9993C10.5668 22.9785 11.4382 22.484 12.1047 22.0037C12.7972 21.5046 13.4373 20.8932 13.9121 20.4378C16.7505 17.7285 19.9726 12.6167 18.7255 7.14187Z" fill="#3757FF"/>
<path fill-rule="evenodd" clip-rule="evenodd" d="M9.50027 7C8.11956 7 7.00027 8.11929 7.00027 9.5C7.00027 10.8807 8.11955 12 9.50027 12C10.881 12 12.0003 10.8807 12.0003 9.5C12.0003 8.11929 10.881 7 9.50027 7ZM5.00027 9.5C5.00027 7.01472 7.01499 5 9.50027 5C11.9855 5 14.0003 7.01472 14.0003 9.5C14.0003 11.9853 11.9855 14 9.50027 14C7.01499 14 5.00027 11.9853 5.00027 9.5Z" fill="#3757FF"/>
</svg>
