<svg width="19" height="20" viewBox="0 0 19 20" fill="none" xmlns="http://www.w3.org/2000/svg">
<path fill-rule="evenodd" clip-rule="evenodd" d="M4.05608 2.9386C3.73479 2.9386 3.38015 3.06377 2.98641 3.45078L2.97884 3.45822L2.9711 3.46551C2.62031 3.79595 2.38385 4.1506 2.23684 4.5237L2.23476 4.52898C2.08096 4.91291 2 5.3383 2 5.7976C2 6.52495 2.16775 7.31875 2.53374 8.18711C2.90804 9.06659 3.42949 9.96999 4.09112 10.8888C4.76552 11.8134 5.5225 12.6997 6.36308 13.5475C7.21253 14.3872 8.10116 15.1439 9.03748 15.8268C9.95312 16.4924 10.8664 17.0141 11.7686 17.3979C12.6472 17.7717 13.4418 17.9386 14.1522 17.9386C14.6214 17.9386 15.0437 17.8522 15.4281 17.6923L15.4335 17.6901C15.7993 17.5404 16.139 17.3022 16.4678 16.9405C16.6448 16.7456 16.7782 16.54 16.8832 16.3181C16.9657 16.1436 17 15.9749 17 15.8191C17 15.7395 16.9858 15.659 16.9437 15.5488C16.9322 15.5268 16.9053 15.4889 16.827 15.4347L16.8172 15.428L14.0082 13.4366C13.8364 13.3205 13.7057 13.2504 13.6038 13.2088C13.5201 13.1747 13.4781 13.1726 13.4627 13.1726C13.4622 13.1726 13.4617 13.1726 13.4611 13.1726C13.4523 13.1724 13.4329 13.1721 13.3777 13.2056L13.3495 13.2228L13.3203 13.238C13.2471 13.2761 13.1243 13.3627 12.9519 13.5347L12.9473 13.5394L12.302 14.1752C12.0313 14.4441 11.6714 14.6091 11.2494 14.6091C11.0954 14.6091 10.9 14.5918 10.6859 14.5116L10.6643 14.5035L10.6431 14.4945C10.6036 14.4775 10.5669 14.4607 10.544 14.4502L10.5374 14.4472L10.5122 14.4358C10.5111 14.4353 10.5102 14.4349 10.5096 14.4347L10.463 14.416L10.416 14.3912C10.0393 14.1921 9.61208 13.888 9.1398 13.489L9.13851 13.4879C8.66133 13.0833 8.19945 12.6482 7.73172 12.1898L7.72498 12.1832L7.71836 12.1765C7.2578 11.7078 6.83487 11.2413 6.44161 10.7875L6.43434 10.7791C6.04208 10.3163 5.72859 9.89117 5.52802 9.524L5.48529 9.44579L5.46074 9.37226L5.45399 9.35611C5.45312 9.35406 5.45215 9.35178 5.45109 9.34927C5.44058 9.32455 5.42091 9.27827 5.40135 9.22618L5.3813 9.1728L5.36745 9.11748C5.33396 8.98373 5.31197 8.84198 5.31197 8.6791C5.31197 8.30378 5.4422 7.93504 5.73307 7.64004L6.38172 6.9668L6.38857 6.95996C6.54754 6.80123 6.64689 6.66814 6.70161 6.57148L6.70958 6.5574L6.71801 6.54358C6.74803 6.49433 6.75044 6.46851 6.75061 6.46205C6.75046 6.46016 6.74961 6.45083 6.74565 6.43377C6.74016 6.41011 6.72996 6.37716 6.71252 6.33652L6.70924 6.32889L6.7061 6.32122C6.66506 6.22104 6.59677 6.09417 6.47982 5.93198L6.47574 5.92633L4.49413 3.13742C4.451 3.07523 4.39999 3.0334 4.32708 2.9998L4.32022 2.99664L4.31342 2.99337C4.24407 2.96014 4.15464 2.9386 4.05608 2.9386ZM1.59211 2.01691C2.28648 1.33749 3.12093 0.938599 4.05608 0.938599C4.43182 0.938599 4.81656 1.01803 5.17096 1.18655C5.53637 1.35625 5.87287 1.61787 6.13407 1.9925L8.10419 4.76518C8.29097 5.02459 8.44221 5.28532 8.55369 5.55542C8.66767 5.8232 8.75063 6.13432 8.75063 6.4606C8.75063 6.86051 8.63401 7.23766 8.43431 7.57039C8.27015 7.85675 8.0518 8.12455 7.80892 8.36803L7.41398 8.77794C7.53509 8.95897 7.71229 9.1933 7.95666 9.48191C8.32653 9.90854 8.71748 10.3394 9.13834 10.768C9.58725 11.2078 10.0084 11.6033 10.4313 11.9618C10.7242 12.2092 10.9626 12.3847 11.1486 12.5039L11.5413 12.1169C11.7862 11.8727 12.0615 11.644 12.3671 11.4796C12.6928 11.2875 13.0569 11.1726 13.4627 11.1726C13.7708 11.1726 14.0693 11.2385 14.3601 11.3574C14.6313 11.4681 14.8896 11.6176 15.1396 11.7873L15.148 11.793L17.9696 13.7932C18.3171 14.0347 18.601 14.3491 18.7789 14.7529L18.7858 14.7684L18.7921 14.7842C18.9138 15.0882 19 15.4277 19 15.8191C19 16.2753 18.8981 16.7356 18.6912 17.1731C18.5067 17.5632 18.2656 17.9356 17.9488 18.2847C17.4442 18.8399 16.8652 19.2647 16.1938 19.5399C15.5574 19.8043 14.8739 19.9386 14.1522 19.9386C13.126 19.9386 12.0649 19.6975 10.9856 19.2383C9.93003 18.7892 8.88566 18.1891 7.86066 17.4439L7.85941 17.443C6.83923 16.699 5.87336 15.876 4.95334 14.9661L4.94647 14.9593C4.03547 14.0409 3.21081 13.0761 2.47341 12.0648L2.47002 12.0601C1.73673 11.0422 1.13529 10.0089 0.692727 8.96856L0.691488 8.96565C0.240674 7.89657 0 6.83785 0 5.7976C0 5.10186 0.123026 4.42317 0.377122 3.78786C0.637557 3.12808 1.04513 2.53409 1.59211 2.01691Z" fill="#292D32"/>
</svg>
