<svg width="28" height="26" viewBox="0 0 28 26" fill="none" xmlns="http://www.w3.org/2000/svg">
<path fill-rule="evenodd" clip-rule="evenodd" d="M13.6683 10.1178C12.0943 10.1178 10.8183 11.3937 10.8183 12.9678C10.8183 14.5418 12.0943 15.8178 13.6683 15.8178C15.2423 15.8178 16.5183 14.5418 16.5183 12.9678C16.5183 11.3937 15.2423 10.1178 13.6683 10.1178ZM9.01831 12.9678C9.01831 10.3996 11.1002 8.31776 13.6683 8.31776C16.2364 8.31776 18.3183 10.3996 18.3183 12.9678C18.3183 15.5359 16.2364 17.6178 13.6683 17.6178C11.1002 17.6178 9.01831 15.5359 9.01831 12.9678Z" fill="#3757FF"/>
<path fill-rule="evenodd" clip-rule="evenodd" d="M10.705 2.66145C10.3603 2.08682 9.63281 1.90637 9.09097 2.22873L9.07782 2.2364L6.91532 3.4739C6.21297 3.87524 5.97087 4.78472 6.37259 5.48001L5.59331 5.93026L6.37197 5.47894C7.03679 6.62594 7.21153 7.87571 6.6231 8.89682C6.03474 9.91778 4.86631 10.3928 3.54331 10.3928C2.73094 10.3928 2.06831 11.0617 2.06831 11.8678V14.0678C2.06831 14.8738 2.73094 15.5428 3.54331 15.5428C4.86631 15.5428 6.03474 16.0177 6.6231 17.0387C7.21143 18.0596 7.03685 19.3092 6.3723 20.456C5.97098 21.1512 6.21266 22.0601 6.91484 22.4613L9.07782 23.6991L9.09097 23.7068C9.6328 24.0291 10.3602 23.8487 10.7049 23.2741L10.8394 23.0418C11.504 21.8952 12.5014 21.1209 13.6792 21.1209C14.8579 21.1209 15.8521 21.8956 16.5106 23.0434L16.5116 23.0452L16.6442 23.2741C16.9889 23.8487 17.7163 24.0291 18.2581 23.7068L18.2713 23.6991L20.4338 22.4616C21.1344 22.0613 21.38 21.1641 20.9755 20.4538C20.312 19.3076 20.1381 18.059 20.726 17.0387C21.3144 16.0177 22.4828 15.5428 23.8058 15.5428C24.6182 15.5428 25.2808 14.8738 25.2808 14.0678V11.8678C25.2808 11.0554 24.6118 10.3928 23.8058 10.3928C22.4828 10.3928 21.3144 9.91778 20.726 8.89682C20.1377 7.87595 20.3122 6.62653 20.9767 5.47974C21.3782 4.78449 21.1365 3.87547 20.4343 3.47418L18.2713 2.2364L18.2581 2.22873C17.7163 1.90637 16.9889 2.08681 16.6442 2.66142L16.5097 2.89369C15.8451 4.04031 14.8477 4.81463 13.6699 4.81463C12.4912 4.81463 11.4969 4.03979 10.8384 2.89198L10.8375 2.89035L10.705 2.66145ZM8.17777 0.677567C9.6086 -0.168386 11.4244 0.350186 12.2543 1.7451L12.2597 1.7543L12.3991 1.99516C12.8656 2.80896 13.3585 3.01463 13.6699 3.01463C13.9826 3.01463 14.4793 2.80732 14.9522 1.99144L15.0948 1.74506C15.9247 0.350162 17.7405 -0.168379 19.1713 0.677552L21.3273 1.91134C22.8996 2.81014 23.4333 4.82596 22.5351 6.38051L22.5345 6.38158C22.0618 7.19707 22.1303 7.72856 22.2856 7.99808C22.441 8.26774 22.8663 8.59276 23.8058 8.59276C25.5998 8.59276 27.0808 10.0551 27.0808 11.8678V14.0678C27.0808 15.8617 25.6184 17.3428 23.8058 17.3428C22.8663 17.3428 22.441 17.6678 22.2856 17.9374C22.1303 18.207 22.0618 18.7384 22.5345 19.5539L22.5372 19.5587C23.4312 21.1231 22.9011 23.1249 21.3273 24.0242L19.1714 25.2579C17.7406 26.1039 15.9247 25.5854 15.0948 24.1904L15.0894 24.1812L14.9519 23.9437L14.95 23.9404C14.4835 23.1266 13.9906 22.9209 13.6792 22.9209C13.3665 22.9209 12.87 23.1281 12.3972 23.9437V23.9437L12.2543 24.1905C11.4245 25.5854 9.60861 26.1039 8.17779 25.258L6.02179 24.0242C4.44913 23.1255 3.91576 21.1097 4.81403 19.555L4.81465 19.5539C5.28733 18.7384 5.21884 18.207 5.06352 17.9374C4.90813 17.6678 4.48281 17.3428 3.54331 17.3428C1.73068 17.3428 0.268311 15.8617 0.268311 14.0678V11.8678C0.268311 10.0738 1.73068 8.59276 3.54331 8.59276C4.48281 8.59276 4.90813 8.26774 5.06352 7.99808C5.21884 7.72856 5.28733 7.19707 4.81465 6.38158L4.81403 6.38051C3.91576 4.8258 4.44913 2.81 6.02179 1.91134L8.17777 0.677567ZM8.17777 0.677567C8.1754 0.678972 8.17302 0.680381 8.17065 0.681793L8.63081 1.45526L8.1838 0.674118L8.17777 0.677567Z" fill="#3757FF"/>
</svg>
