<svg width="25" height="25" viewBox="0 0 25 25" fill="none" xmlns="http://www.w3.org/2000/svg">
<path d="M18.573 22.5653C17.693 22.8253 16.653 22.9453 15.433 22.9453H9.43297C8.21297 22.9453 7.17297 22.8253 6.29297 22.5653C6.51297 19.9653 9.18297 17.9153 12.433 17.9153C15.683 17.9153 18.353 19.9653 18.573 22.5653Z" stroke="#3757FF" stroke-width="2" stroke-linecap="round" stroke-linejoin="round"/>
<path d="M15.4336 2.94531H9.43359C4.43359 2.94531 2.43359 4.94531 2.43359 9.94531V15.9453C2.43359 19.7253 3.57359 21.7953 6.29359 22.5653C6.51359 19.9653 9.18359 17.9153 12.4336 17.9153C15.6836 17.9153 18.3536 19.9653 18.5736 22.5653C21.2936 21.7953 22.4336 19.7253 22.4336 15.9453V9.94531C22.4336 4.94531 20.4336 2.94531 15.4336 2.94531ZM12.4336 15.1153C10.4536 15.1153 8.85359 13.5053 8.85359 11.5253C8.85359 9.54533 10.4536 7.94531 12.4336 7.94531C14.4136 7.94531 16.0136 9.54533 16.0136 11.5253C16.0136 13.5053 14.4136 15.1153 12.4336 15.1153Z" stroke="#3757FF" stroke-width="2" stroke-linecap="round" stroke-linejoin="round"/>
<path d="M16.0135 11.5253C16.0135 13.5053 14.4135 15.1153 12.4335 15.1153C10.4535 15.1153 8.85352 13.5053 8.85352 11.5253C8.85352 9.54533 10.4535 7.94531 12.4335 7.94531C14.4135 7.94531 16.0135 9.54533 16.0135 11.5253Z" stroke="#3757FF" stroke-width="2" stroke-linecap="round" stroke-linejoin="round"/>
</svg>
