<svg width="29" height="29" viewBox="0 0 29 29" fill="none" xmlns="http://www.w3.org/2000/svg">
<path fill-rule="evenodd" clip-rule="evenodd" d="M6.16828 18.3183C3.90284 18.3183 2.06828 20.1529 2.06828 22.4183C2.06828 23.1871 2.2834 23.9113 2.65934 24.5209L2.66679 24.5332C3.37306 25.7206 4.67223 26.5183 6.16828 26.5183C7.66433 26.5183 8.9635 25.7206 9.66977 24.5332L9.67722 24.5209C10.0532 23.9113 10.2683 23.1871 10.2683 22.4183C10.2683 20.1529 8.43372 18.3183 6.16828 18.3183ZM0.26828 22.4183C0.26828 19.1588 2.90872 16.5183 6.16828 16.5183C9.42784 16.5183 12.0683 19.1588 12.0683 22.4183C12.0683 23.522 11.7598 24.5705 11.2131 25.4596C10.1935 27.1688 8.31964 28.3183 6.16828 28.3183C4.01691 28.3183 2.14301 27.1688 1.12345 25.4596C0.576742 24.5705 0.26828 23.522 0.26828 22.4183Z" fill="#3757FF"/>
<path fill-rule="evenodd" clip-rule="evenodd" d="M8.78077 20.5816C9.11827 20.9465 9.09605 21.516 8.73113 21.8535L6.06863 24.3159C5.71375 24.6441 5.16296 24.6334 4.82115 24.2916L3.58365 23.0541C3.23217 22.7026 3.23217 22.1328 3.58364 21.7813C3.93511 21.4298 4.50496 21.4298 4.85643 21.7813L5.48189 22.4068L7.50895 20.532C7.87386 20.1945 8.44328 20.2167 8.78077 20.5816Z" fill="#3757FF"/>
<path fill-rule="evenodd" clip-rule="evenodd" d="M13.0807 3.08048L9.65342 6.51829H21.0019C20.8353 6.07482 20.5692 5.65942 20.2012 5.29715L20.1925 5.28859L18.0082 3.07923C16.6469 1.73092 14.4414 1.73134 13.0807 3.08048ZM11.811 1.80459C13.8744 -0.243782 17.2157 -0.243782 19.2791 1.80459L19.2851 1.81051L21.4684 4.01884C22.429 4.96659 22.9459 6.17925 23.0065 7.43745C23.0196 7.70927 22.909 7.97243 22.7056 8.15328C22.5023 8.33414 22.228 8.41326 21.9596 8.36852C21.7317 8.33055 21.4765 8.31828 21.17 8.31828H8.67004C8.36293 8.31828 8.07131 8.34021 7.79439 8.38282C7.46181 8.43398 7.12847 8.29535 6.93026 8.02344C6.73205 7.75153 6.70207 7.39176 6.85255 7.09079C7.08044 6.63501 7.39477 6.23338 7.74569 5.88238C7.74584 5.88223 7.74553 5.88253 7.74569 5.88238L11.811 1.80459Z" fill="#3757FF"/>
<path fill-rule="evenodd" clip-rule="evenodd" d="M8.66828 8.31831C8.36118 8.31831 8.06955 8.34024 7.79263 8.38284C7.78438 8.38411 7.77612 8.38526 7.76784 8.3863C6.3753 8.56105 5.27836 9.15771 4.52667 10.0396C3.77314 10.9237 3.31828 12.1517 3.31828 13.6683V17.2541C4.16069 16.7867 5.13156 16.5183 6.16828 16.5183C9.42784 16.5183 12.0683 19.1588 12.0683 22.4183C12.0683 23.4438 11.802 24.4217 11.3257 25.2683H21.1683C22.8388 25.2683 24.1609 24.7154 25.0631 23.8132C25.9654 22.9109 26.5183 21.5888 26.5183 19.9183V13.6683C26.5183 12.1414 26.0554 10.9057 25.29 10.0188C24.5263 9.1338 23.4124 8.5388 22.0018 8.37477C21.9871 8.37306 21.9724 8.37099 21.9578 8.36855C21.73 8.33057 21.4747 8.31831 21.1683 8.31831H8.66828ZM7.53137 6.60187C7.90053 6.54576 8.27975 6.51831 8.66828 6.51831H21.1683C21.5049 6.51831 21.8667 6.53051 22.2312 6.58934C24.0363 6.80401 25.5708 7.58902 26.6528 8.8428C27.7374 10.0996 28.3183 11.7702 28.3183 13.6683V19.9183C28.3183 21.9978 27.6212 23.8007 26.3359 25.086C25.0507 26.3712 23.2478 27.0683 21.1683 27.0683H9.45578C9.07739 27.0683 8.7394 26.8316 8.61002 26.476C8.48064 26.1204 8.58751 25.7219 8.87743 25.4787C9.18446 25.2212 9.45496 24.9014 9.66588 24.5398L9.67722 24.5209C10.0532 23.9113 10.2683 23.1871 10.2683 22.4183C10.2683 20.1529 8.43372 18.3183 6.16828 18.3183C4.94007 18.3183 3.84454 18.8594 3.09408 19.7127C2.84674 19.9939 2.45108 20.0926 2.10065 19.9604C1.75022 19.8282 1.51828 19.4928 1.51828 19.1183V13.6683C1.51828 11.7849 2.08842 10.1254 3.15676 8.872C4.2245 7.61928 5.74178 6.82919 7.53137 6.60187Z" fill="#3757FF"/>
<path fill-rule="evenodd" clip-rule="evenodd" d="M20.2683 16.7933C20.2683 14.9213 21.7962 13.3933 23.6683 13.3933H27.4183C27.9153 13.3933 28.3183 13.7963 28.3183 14.2933C28.3183 14.7904 27.9153 15.1933 27.4183 15.1933H23.6683C22.7903 15.1933 22.0683 15.9154 22.0683 16.7933C22.0683 17.6713 22.7903 18.3933 23.6683 18.3933H27.4183C27.9153 18.3933 28.3183 18.7963 28.3183 19.2933C28.3183 19.7904 27.9153 20.1933 27.4183 20.1933H23.6683C21.7962 20.1933 20.2683 18.6654 20.2683 16.7933Z" fill="#3757FF"/>
</svg>
