<svg width="24" height="24" viewBox="0 0 24 24" fill="none" xmlns="http://www.w3.org/2000/svg">
<path fill-rule="evenodd" clip-rule="evenodd" d="M11.8395 7.16535C12.2116 7.16535 12.5133 7.467 12.5133 7.8391V12.5553C12.5133 12.9274 12.2116 13.229 11.8395 13.229C11.4674 13.229 11.1658 12.9274 11.1658 12.5553V7.8391C11.1658 7.467 11.4674 7.16535 11.8395 7.16535Z" fill="#839AE0"/>
<path fill-rule="evenodd" clip-rule="evenodd" d="M12.9144 3.63531C12.2403 3.2507 11.4185 3.25265 10.757 3.63452L5.42343 6.71434C4.75694 7.10695 4.34748 7.82084 4.34748 8.58473V14.7292C4.34748 15.505 4.75926 16.2162 5.42097 16.5982L10.7544 19.678L10.7557 19.6787C11.4297 20.0633 12.2515 20.0613 12.913 19.6795L18.2446 16.6008L18.2467 16.5996C18.9131 16.207 19.3226 15.4931 19.3226 14.7292V8.58473C19.3226 7.81305 18.9141 7.10753 18.2466 6.71434L18.2446 6.71315L12.9156 3.63601L12.9144 3.63531ZM10.0833 2.46755C11.1642 1.84354 12.4977 1.84526 13.5842 2.46607L13.5868 2.46758L18.9273 5.55138C20.0013 6.18251 20.67 7.32699 20.67 8.58473V14.7292C20.67 15.9768 20.0023 17.1308 18.9273 17.7626L18.9228 17.7652L13.5868 20.8464C12.5059 21.4704 11.1723 21.4687 10.0859 20.8479L10.0832 20.8464L4.74726 17.7652C3.66622 17.1411 3 15.9837 3 14.7292V8.58473C3 7.33716 3.66772 6.18314 4.74278 5.5514L4.7472 5.54881L10.0833 2.46755Z" fill="#839AE0"/>
<path fill-rule="evenodd" clip-rule="evenodd" d="M11.8395 14.5316C12.3356 14.5316 12.7378 14.9338 12.7378 15.4299V15.5198C12.7378 16.0159 12.3356 16.4181 11.8395 16.4181C11.3434 16.4181 10.9412 16.0159 10.9412 15.5198V15.4299C10.9412 14.9338 11.3434 14.5316 11.8395 14.5316Z" fill="#839AE0"/>
</svg>
